<svg xmlns="http://www.w3.org/2000/svg" xmlns:xlink="http://www.w3.org/1999/xlink" width="1000" zoomAndPan="magnify" viewBox="0 0 750 749.999995" height="1000" preserveAspectRatio="xMidYMid meet" version="1.0"><defs><clipPath id="id1"><path d="M 352.652344 743 L 378 743 L 378 750 L 352.652344 750 Z M 352.652344 743 " clip-rule="nonzero"/></clipPath><clipPath id="id2"><path d="M 520.195312 380 L 683 380 L 683 424 L 520.195312 424 Z M 520.195312 380 " clip-rule="nonzero"/></clipPath><clipPath id="id3"><path d="M 372.277344 725 L 428 725 L 428 750 L 372.277344 750 Z M 372.277344 725 " clip-rule="nonzero"/></clipPath><clipPath id="id4"><path d="M 466 351 L 683.027344 351 L 683.027344 517 L 466 517 Z M 466 351 " clip-rule="nonzero"/></clipPath></defs><path fill="rgb(91.369629%, 76.078796%, 38.038635%)" d="M 227.375 423.703125 C 227.027344 423.703125 226.664062 423.621094 226.335938 423.449219 C 217.679688 418.953125 208.484375 416.039062 198.996094 414.789062 C 191.980469 413.847656 184.710938 413.804688 177.675781 413.757812 C 172.246094 413.722656 166.625 413.6875 161.089844 413.246094 C 145.277344 411.980469 129.550781 407.308594 115.625 399.746094 C 113.023438 398.339844 110.441406 396.804688 107.949219 395.328125 C 101.28125 391.371094 94.984375 387.632812 87.902344 385.683594 C 87.136719 385.464844 86.316406 385.269531 85.226562 385.058594 C 80.113281 384.144531 74.914062 384.480469 70.609375 386.03125 C 69.429688 386.441406 68.132812 385.839844 67.714844 384.664062 C 67.289062 383.488281 67.902344 382.191406 69.074219 381.769531 C 74.117188 379.957031 80.148438 379.546875 86.0625 380.605469 C 87.316406 380.855469 88.253906 381.074219 89.128906 381.328125 C 96.773438 383.429688 103.632812 387.496094 110.257812 391.4375 C 112.71875 392.890625 115.257812 394.402344 117.78125 395.769531 C 131.160156 403.03125 146.261719 407.515625 161.449219 408.738281 C 166.820312 409.160156 172.351562 409.195312 177.703125 409.230469 C 184.878906 409.277344 192.296875 409.328125 199.589844 410.304688 C 209.597656 411.621094 219.300781 414.691406 228.421875 419.429688 C 229.53125 420.007812 229.960938 421.375 229.390625 422.484375 C 228.984375 423.261719 228.191406 423.703125 227.375 423.703125 " fill-opacity="1" fill-rule="nonzero"/><path fill="rgb(91.369629%, 76.078796%, 38.038635%)" d="M 246.8125 363.582031 C 246.453125 363.582031 246.085938 363.496094 245.75 363.3125 C 239.195312 359.816406 233.015625 355.644531 227.386719 350.914062 C 221.257812 345.796875 215.707031 339.980469 210.875 333.621094 C 207.496094 329.1875 204.484375 324.484375 201.921875 319.636719 C 199.671875 315.429688 197.722656 311.015625 196.117188 306.527344 C 192.515625 296.671875 190.410156 286.261719 189.863281 275.605469 C 189.355469 265.820312 190.1875 256.085938 192.34375 246.671875 C 192.628906 245.363281 192.964844 244.003906 193.335938 242.652344 C 193.984375 240.257812 194.761719 237.773438 195.640625 235.277344 C 202.160156 216.550781 213.46875 199.667969 224.402344 183.34375 C 232.855469 170.71875 241.601562 157.667969 248.046875 143.875 C 253.640625 131.902344 257.738281 118.867188 260.214844 105.144531 C 263.875 84.898438 264.019531 63.5625 260.640625 41.734375 C 257.660156 22.523438 251.050781 10.015625 240.992188 4.546875 C 239.898438 3.949219 239.488281 2.578125 240.085938 1.480469 C 240.679688 0.378906 242.054688 -0.0273438 243.15625 0.574219 C 254.519531 6.746094 261.90625 20.363281 265.113281 41.039062 C 268.570312 63.371094 268.421875 85.203125 264.671875 105.953125 C 262.125 120.058594 257.910156 133.464844 252.148438 145.789062 C 245.558594 159.894531 236.714844 173.101562 228.167969 185.863281 C 217.390625 201.949219 206.246094 218.585938 199.910156 236.773438 C 199.066406 239.175781 198.324219 241.550781 197.703125 243.847656 C 197.351562 245.121094 197.039062 246.40625 196.761719 247.65625 C 194.699219 256.6875 193.894531 266 194.386719 275.367188 C 194.910156 285.578125 196.925781 295.539062 200.375 304.988281 C 201.914062 309.28125 203.777344 313.488281 205.917969 317.523438 C 208.371094 322.148438 211.246094 326.640625 214.480469 330.878906 C 219.105469 336.96875 224.425781 342.539062 230.292969 347.441406 C 235.6875 351.976562 241.605469 355.96875 247.878906 359.320312 C 248.984375 359.910156 249.402344 361.285156 248.8125 362.378906 C 248.40625 363.148438 247.621094 363.582031 246.8125 363.582031 " fill-opacity="1" fill-rule="nonzero"/><path fill="rgb(91.369629%, 76.078796%, 38.038635%)" d="M 179.664062 376.492188 C 179.171875 376.492188 178.675781 376.332031 178.265625 376.007812 C 177.296875 375.25 176.371094 374.476562 175.523438 373.722656 C 174.589844 372.890625 174.503906 371.457031 175.335938 370.527344 C 176.164062 369.589844 177.597656 369.507812 178.53125 370.339844 C 179.316406 371.035156 180.167969 371.746094 181.066406 372.449219 C 182.042969 373.222656 182.214844 374.648438 181.441406 375.632812 C 180.996094 376.199219 180.335938 376.492188 179.664062 376.492188 " fill-opacity="1" fill-rule="nonzero"/><path fill="rgb(91.369629%, 76.078796%, 38.038635%)" d="M 177.007812 374.277344 C 176.476562 374.277344 175.953125 374.085938 175.523438 373.714844 C 169.5625 368.539062 163.8125 362.109375 157.417969 353.46875 C 155.347656 350.660156 153.289062 347.761719 151.300781 344.84375 C 137.695312 325.007812 123.578125 301.210938 122.085938 275.238281 C 121.890625 271.8125 121.910156 268.351562 122.144531 264.957031 C 122.230469 263.714844 123.332031 262.765625 124.558594 262.855469 C 125.808594 262.941406 126.746094 264.019531 126.664062 265.269531 C 126.4375 268.476562 126.421875 271.742188 126.601562 274.980469 C 128.03125 299.777344 141.113281 321.988281 155.039062 342.292969 C 156.996094 345.160156 159.027344 348.015625 161.058594 350.773438 C 167.25 359.144531 172.789062 365.34375 178.496094 370.304688 C 179.4375 371.121094 179.539062 372.550781 178.71875 373.492188 C 178.269531 374.011719 177.640625 374.277344 177.007812 374.277344 " fill-opacity="1" fill-rule="nonzero"/><path fill="rgb(91.369629%, 76.078796%, 38.038635%)" d="M 124.402344 267.320312 C 124.355469 267.320312 124.308594 267.320312 124.261719 267.316406 C 123.011719 267.238281 122.0625 266.167969 122.140625 264.917969 C 122.960938 251.796875 126.542969 238.035156 133.425781 221.621094 C 145.53125 192.855469 162.6875 166.917969 184.433594 144.527344 C 187.640625 141.226562 190.988281 137.96875 194.226562 134.820312 C 201.171875 128.058594 208.351562 121.074219 214.414062 113.417969 C 235.226562 87.085938 243.304688 50.4375 235.492188 17.78125 C 235.125 16.21875 234.691406 13.8125 234.691406 11.183594 C 234.691406 4.742188 237.296875 0.773438 241.84375 0.308594 C 243.082031 0.179688 244.199219 1.085938 244.324219 2.328125 C 244.453125 3.574219 243.550781 4.679688 242.308594 4.8125 C 239.753906 5.070312 239.21875 8.425781 239.21875 11.183594 C 239.21875 12.898438 239.460938 14.867188 239.898438 16.738281 C 248.027344 50.703125 239.621094 88.824219 217.964844 116.222656 C 211.71875 124.113281 204.433594 131.207031 197.386719 138.0625 C 194.171875 141.191406 190.847656 144.429688 187.675781 147.683594 C 166.332031 169.667969 149.480469 195.136719 137.601562 223.371094 C 130.925781 239.308594 127.445312 252.601562 126.664062 265.199219 C 126.585938 266.394531 125.589844 267.320312 124.402344 267.320312 " fill-opacity="1" fill-rule="nonzero"/><path fill="rgb(91.369629%, 76.078796%, 38.038635%)" d="M 266.566406 500.375 C 266.546875 500.375 266.53125 500.375 266.511719 500.375 C 261.832031 500.351562 256.941406 498.101562 252.75 494.027344 C 247.160156 488.605469 243.300781 480.769531 241.570312 471.367188 C 240.390625 464.867188 240.292969 458.246094 240.34375 453.210938 C 240.355469 451.964844 241.40625 450.964844 242.625 450.972656 C 243.875 450.984375 244.878906 452.003906 244.875 453.253906 C 244.820312 458.394531 244.921875 464.464844 246.027344 470.554688 C 247.109375 476.460938 249.703125 484.761719 255.90625 490.78125 C 259.253906 494.035156 263.027344 495.832031 266.53125 495.847656 C 266.542969 495.847656 266.558594 495.847656 266.570312 495.847656 C 271.78125 495.847656 276.074219 492.054688 278.167969 489.785156 C 279.832031 488.003906 281.3125 485.96875 282.660156 484.035156 C 283.378906 483.011719 284.789062 482.761719 285.816406 483.480469 C 286.839844 484.195312 287.089844 485.609375 286.371094 486.628906 C 284.925781 488.699219 283.332031 490.878906 281.492188 492.867188 C 277.011719 497.707031 271.710938 500.375 266.566406 500.375 " fill-opacity="1" fill-rule="nonzero"/><path fill="rgb(91.369629%, 76.078796%, 38.038635%)" d="M 273.078125 521.539062 C 259.136719 521.539062 245.1875 514.246094 237.457031 502.621094 C 235.027344 498.96875 233.109375 494.875 231.773438 490.46875 C 230.632812 486.765625 229.867188 482.746094 229.503906 478.511719 C 228.902344 471.910156 229.171875 464.660156 230.332031 456.355469 C 230.503906 455.117188 231.648438 454.257812 232.886719 454.425781 C 234.125 454.597656 234.992188 455.742188 234.8125 456.980469 C 233.707031 464.9375 233.445312 471.851562 234.011719 478.113281 C 234.355469 482.039062 235.054688 485.746094 236.101562 489.140625 C 237.320312 493.136719 239.042969 496.828125 241.230469 500.121094 C 248.757812 511.445312 262.902344 518.160156 276.445312 516.847656 C 277.671875 516.714844 278.800781 517.636719 278.917969 518.878906 C 279.039062 520.125 278.132812 521.230469 276.882812 521.351562 C 275.621094 521.472656 274.347656 521.539062 273.078125 521.539062 " fill-opacity="1" fill-rule="nonzero"/><path fill="rgb(91.369629%, 76.078796%, 38.038635%)" d="M 355.140625 748.066406 C 355.035156 748.066406 354.929688 748.0625 354.824219 748.042969 L 351.980469 747.644531 C 343.0625 746.398438 334.582031 744.765625 328.863281 738.582031 C 326.441406 735.953125 324.625 732.570312 323.316406 728.238281 C 322.949219 727.042969 323.628906 725.78125 324.824219 725.414062 C 326.019531 725.054688 327.28125 725.726562 327.648438 726.929688 C 328.769531 730.644531 330.214844 733.371094 332.1875 735.507812 C 336.894531 740.59375 344.535156 742.03125 352.605469 743.164062 L 355.453125 743.558594 C 356.691406 743.734375 357.554688 744.878906 357.382812 746.121094 C 357.222656 747.25 356.25 748.066406 355.140625 748.066406 " fill-opacity="1" fill-rule="nonzero"/><g clip-path="url(#id1)"><path fill="rgb(91.369629%, 76.078796%, 38.038635%)" d="M 374.789062 750 C 374.757812 750 374.734375 750 374.703125 749.996094 C 368.667969 749.789062 362.625 749.070312 358.03125 748.460938 C 356.96875 748.332031 355.910156 748.199219 354.851562 748.042969 C 353.613281 747.867188 352.757812 746.71875 352.9375 745.480469 C 353.113281 744.242188 354.261719 743.375 355.5 743.5625 C 356.527344 743.710938 357.558594 743.839844 358.601562 743.976562 C 363.113281 744.566406 369.019531 745.273438 374.863281 745.472656 C 376.113281 745.515625 377.09375 746.566406 377.046875 747.8125 C 377.003906 749.035156 376.003906 750 374.789062 750 " fill-opacity="1" fill-rule="nonzero"/></g><path fill="rgb(91.369629%, 76.078796%, 38.038635%)" d="M 290.75 684.378906 C 290.363281 684.378906 289.964844 684.273438 289.601562 684.0625 C 275.179688 675.53125 263.898438 661.421875 254.832031 650.085938 C 248.257812 641.84375 240.804688 632.5 237.550781 621.5 C 234 609.492188 235.738281 597.007812 237.414062 584.9375 C 238.394531 577.925781 239.402344 570.683594 239.335938 563.675781 C 239.261719 553.722656 237.007812 543.714844 234.832031 534.042969 C 233.828125 529.589844 232.796875 525 231.976562 520.429688 C 231.628906 518.53125 231.347656 516.667969 231.125 514.890625 C 229.855469 505.296875 230.054688 496.6875 231.730469 489.304688 C 232.007812 488.085938 233.222656 487.320312 234.4375 487.597656 C 235.65625 487.878906 236.425781 489.089844 236.148438 490.308594 C 234.589844 497.164062 234.414062 505.238281 235.617188 514.304688 C 235.828125 516.027344 236.105469 517.808594 236.4375 519.628906 C 237.238281 524.101562 238.261719 528.648438 239.25 533.046875 C 241.476562 542.953125 243.78125 553.207031 243.863281 563.640625 C 243.929688 570.972656 242.898438 578.386719 241.902344 585.554688 C 240.214844 597.6875 238.625 609.144531 241.894531 620.214844 C 244.898438 630.375 251.746094 638.957031 258.371094 647.261719 C 267.203125 658.308594 278.199219 672.0625 291.90625 680.167969 C 292.984375 680.800781 293.339844 682.195312 292.703125 683.265625 C 292.285156 683.984375 291.527344 684.378906 290.75 684.378906 " fill-opacity="1" fill-rule="nonzero"/><path fill="rgb(91.369629%, 76.078796%, 38.038635%)" d="M 336.679688 731.339844 C 334.28125 731.339844 331.871094 731.214844 329.46875 730.84375 C 328.703125 730.71875 327.960938 730.578125 327.21875 730.417969 C 326.398438 730.230469 325.578125 730 324.765625 729.730469 C 319.121094 727.949219 313.59375 724.449219 308.351562 719.34375 C 298.640625 709.933594 291.976562 697.578125 288.546875 682.625 C 285.328125 668.570312 285.160156 652.789062 288.074219 636.980469 C 291.648438 617.488281 298.992188 598.796875 306.09375 580.722656 C 309.375 572.375 312.765625 563.738281 315.730469 555.164062 C 316.144531 553.984375 317.425781 553.351562 318.617188 553.757812 C 319.792969 554.171875 320.425781 555.457031 320.011719 556.640625 C 317.019531 565.308594 313.609375 573.984375 310.308594 582.378906 C 303.285156 600.25 296.023438 618.738281 292.523438 637.792969 C 289.726562 653.007812 289.878906 668.160156 292.960938 681.609375 C 296.191406 695.699219 302.429688 707.304688 311.503906 716.101562 C 316.238281 720.710938 321.167969 723.847656 326.164062 725.425781 C 326.871094 725.660156 327.546875 725.851562 328.203125 726.003906 C 328.839844 726.140625 329.492188 726.261719 330.171875 726.367188 C 334.328125 727.015625 338.761719 726.8125 343.050781 726.609375 L 358.214844 725.875 C 363.828125 725.609375 369.441406 725.34375 375.070312 725.054688 C 376.316406 725.007812 377.382812 725.949219 377.445312 727.207031 C 377.511719 728.449219 376.542969 729.515625 375.300781 729.574219 C 369.664062 729.863281 364.050781 730.128906 358.433594 730.394531 L 343.261719 731.132812 C 341.097656 731.230469 338.890625 731.339844 336.679688 731.339844 " fill-opacity="1" fill-rule="nonzero"/><path fill="rgb(91.369629%, 76.078796%, 38.038635%)" d="M 298.136719 522.214844 C 297.414062 522.214844 296.707031 521.875 296.261719 521.230469 C 292.972656 516.429688 291.363281 510.882812 289.808594 505.511719 C 289.441406 504.25 289.074219 502.988281 288.6875 501.738281 C 287.011719 496.386719 284.929688 491.203125 282.488281 486.347656 C 279.554688 480.457031 276.035156 474.839844 272.03125 469.652344 C 267.832031 464.207031 264.1875 460.746094 260.21875 458.429688 C 255.25 455.535156 249.125 454.480469 242.960938 455.46875 C 239.683594 456 236.472656 457.097656 233.671875 458.648438 C 232.574219 459.253906 231.195312 458.855469 230.59375 457.761719 C 229.984375 456.667969 230.386719 455.289062 231.476562 454.6875 C 234.730469 452.886719 238.457031 451.613281 242.242188 450.996094 C 249.4375 449.847656 256.628906 451.101562 262.503906 454.519531 C 268.269531 457.886719 272.539062 462.898438 275.617188 466.886719 C 279.796875 472.304688 283.476562 478.171875 286.539062 484.324219 C 289.085938 489.394531 291.261719 494.800781 293.007812 500.394531 C 293.410156 501.671875 293.78125 502.964844 294.160156 504.25 C 295.679688 509.507812 297.125 514.472656 300 518.671875 C 300.710938 519.707031 300.445312 521.113281 299.410156 521.820312 C 299.023438 522.085938 298.574219 522.214844 298.136719 522.214844 " fill-opacity="1" fill-rule="nonzero"/><path fill="rgb(91.369629%, 76.078796%, 38.038635%)" d="M 225.769531 465.355469 Z M 223.453125 466.988281 C 223 466.988281 222.539062 466.851562 222.136719 466.570312 C 221.125 465.84375 220.882812 464.429688 221.605469 463.410156 C 221.703125 463.273438 221.800781 463.144531 221.90625 463.003906 C 222.054688 462.785156 222.214844 462.609375 222.339844 462.484375 C 223.214844 461.59375 224.648438 461.589844 225.539062 462.472656 C 226.402344 463.320312 226.4375 464.691406 225.640625 465.578125 C 225.59375 465.652344 225.539062 465.722656 225.480469 465.785156 C 225.410156 465.867188 225.355469 465.949219 225.296875 466.035156 C 224.855469 466.652344 224.160156 466.988281 223.453125 466.988281 " fill-opacity="1" fill-rule="nonzero"/><path fill="rgb(91.369629%, 76.078796%, 38.038635%)" d="M 223.753906 466.585938 C 222.832031 466.585938 221.96875 466.023438 221.628906 465.109375 C 216.253906 450.476562 217.667969 433.730469 225.417969 420.308594 C 226.425781 418.539062 227.589844 416.78125 228.878906 415.097656 C 232.433594 410.441406 236.136719 407.296875 240.210938 405.488281 C 241.984375 404.679688 243.941406 404.109375 246.011719 403.804688 C 250.773438 403.058594 256.09375 403.695312 261.371094 405.648438 C 267.890625 408.066406 273.574219 412.0625 279.070312 415.929688 C 290.746094 424.15625 303.980469 433.484375 311.074219 447.488281 C 311.640625 448.601562 311.191406 449.96875 310.078125 450.53125 C 308.964844 451.097656 307.601562 450.652344 307.035156 449.535156 C 300.449219 436.53125 287.707031 427.554688 276.457031 419.628906 C 271.203125 415.929688 265.761719 412.101562 259.796875 409.890625 C 255.246094 408.207031 250.710938 407.644531 246.695312 408.277344 C 245.027344 408.523438 243.476562 408.976562 242.066406 409.621094 C 238.6875 411.117188 235.558594 413.804688 232.480469 417.84375 C 231.316406 419.363281 230.261719 420.957031 229.34375 422.558594 C 222.253906 434.84375 220.964844 450.164062 225.882812 463.546875 C 226.3125 464.71875 225.710938 466.015625 224.539062 466.453125 C 224.277344 466.546875 224.011719 466.585938 223.753906 466.585938 " fill-opacity="1" fill-rule="nonzero"/><path fill="rgb(91.369629%, 76.078796%, 38.038635%)" d="M 233.371094 516.871094 C 233.011719 516.871094 232.652344 516.789062 232.308594 516.609375 C 221.726562 511.003906 211.890625 503.976562 203.085938 495.726562 C 200.910156 493.667969 198.554688 491.199219 198.160156 487.792969 C 198.011719 486.484375 198.140625 485.160156 198.257812 483.882812 C 198.449219 481.902344 198.53125 480.476562 197.917969 480.179688 C 197.089844 479.769531 195.28125 482.027344 194.203125 483.375 C 193.949219 483.699219 193.695312 484.011719 193.453125 484.3125 C 188.417969 490.347656 177.296875 493.101562 161.160156 482.726562 C 127.972656 461.371094 102.140625 430.914062 77.160156 401.457031 C 73.589844 397.242188 68.726562 390.875 67.613281 384.273438 C 67.089844 381.089844 67.441406 378.101562 68.667969 375.382812 C 70.082031 372.265625 72.488281 369.789062 75.816406 368.023438 C 80.019531 365.78125 85.765625 364.679688 93.0625 364.683594 C 94.675781 364.683594 96.316406 364.722656 97.929688 364.78125 C 111.871094 365.152344 126.074219 366.8125 139.8125 368.421875 C 152.699219 369.933594 166.023438 371.488281 178.949219 371.949219 C 179.027344 371.941406 179.183594 371.949219 179.34375 371.953125 L 179.664062 371.964844 C 197.402344 372.523438 211.785156 370.929688 224.996094 366.941406 C 230.558594 365.269531 236.113281 363.085938 241.476562 360.972656 C 242.988281 360.382812 244.488281 359.785156 246 359.210938 C 250.386719 357.492188 255.628906 355.542969 261.210938 354.046875 C 268.320312 352.175781 275.089844 351.410156 281.3125 351.777344 C 282.5625 351.851562 283.511719 352.917969 283.4375 354.167969 C 283.363281 355.417969 282.285156 356.351562 281.046875 356.296875 C 275.296875 355.960938 269.011719 356.675781 262.371094 358.425781 C 257.011719 359.859375 251.914062 361.753906 247.636719 363.425781 C 246.136719 364.007812 244.636719 364.597656 243.140625 365.1875 C 237.679688 367.332031 232.042969 369.554688 226.300781 371.277344 C 212.605469 375.40625 197.761719 377.0625 179.589844 376.492188 C 179.503906 376.503906 179.34375 376.488281 179.183594 376.480469 L 178.867188 376.476562 C 165.683594 376.007812 152.261719 374.433594 139.285156 372.921875 C 125.648438 371.324219 111.542969 369.671875 97.789062 369.308594 C 96.125 369.246094 94.464844 369.207031 92.824219 369.210938 C 86.4375 369.210938 81.4375 370.15625 77.941406 372.019531 C 75.484375 373.328125 73.796875 375.035156 72.796875 377.246094 C 71.933594 379.164062 71.699219 381.21875 72.078125 383.53125 C 73.003906 389.023438 77.394531 394.726562 80.621094 398.53125 C 105.378906 427.730469 130.988281 457.929688 163.613281 478.914062 C 172.152344 484.414062 184.179688 488.367188 189.96875 481.417969 C 190.1875 481.148438 190.421875 480.851562 190.664062 480.550781 C 192.710938 477.988281 195.800781 474.117188 199.902344 476.113281 C 203.382812 477.804688 203.023438 481.566406 202.769531 484.308594 C 202.664062 485.402344 202.5625 486.441406 202.664062 487.277344 C 202.875 489.164062 204.597656 490.921875 206.1875 492.425781 C 214.695312 500.40625 224.195312 507.195312 234.429688 512.609375 C 235.535156 513.191406 235.957031 514.558594 235.375 515.667969 C 234.960938 516.433594 234.175781 516.871094 233.371094 516.871094 " fill-opacity="1" fill-rule="nonzero"/><path fill="rgb(91.369629%, 76.078796%, 38.038635%)" d="M 220.320312 288.820312 C 219.78125 288.820312 219.238281 288.632812 218.804688 288.238281 C 214.390625 284.257812 210.386719 279.953125 206.90625 275.445312 C 200.1875 266.839844 195.292969 257.542969 192.378906 247.828125 C 192.019531 246.632812 192.703125 245.371094 193.902344 245.011719 C 195.097656 244.652344 196.359375 245.328125 196.71875 246.523438 C 199.472656 255.699219 204.101562 264.5 210.480469 272.667969 C 213.804688 276.972656 217.621094 281.074219 221.835938 284.875 C 222.769531 285.714844 222.839844 287.144531 222.003906 288.070312 C 221.558594 288.574219 220.941406 288.820312 220.320312 288.820312 " fill-opacity="1" fill-rule="nonzero"/><path fill="rgb(91.369629%, 76.078796%, 38.038635%)" d="M 288.917969 317.964844 C 288.816406 317.964844 288.714844 317.957031 288.617188 317.941406 C 284.113281 317.339844 279.511719 316.53125 274.953125 315.539062 C 267.078125 313.832031 259.566406 311.578125 252.621094 308.839844 C 250.664062 308.070312 248.648438 307.222656 246.625 306.308594 C 244.089844 305.160156 241.664062 303.957031 239.21875 302.636719 C 235.15625 300.457031 231.148438 297.933594 227.296875 295.140625 C 224.367188 293.015625 221.507812 290.6875 218.8125 288.230469 C 217.894531 287.386719 217.828125 285.957031 218.671875 285.03125 C 219.515625 284.109375 220.945312 284.046875 221.867188 284.886719 C 224.4375 287.234375 227.160156 289.449219 229.957031 291.472656 C 233.640625 294.148438 237.480469 296.558594 241.363281 298.652344 C 243.722656 299.925781 246.058594 301.082031 248.492188 302.1875 C 250.433594 303.0625 252.382812 303.886719 254.277344 304.625 C 261 307.277344 268.28125 309.457031 275.910156 311.121094 C 280.355469 312.082031 284.832031 312.871094 289.21875 313.453125 C 290.457031 313.625 291.324219 314.761719 291.15625 316 C 291.003906 317.136719 290.039062 317.964844 288.917969 317.964844 " fill-opacity="1" fill-rule="nonzero"/><path fill="rgb(91.369629%, 76.078796%, 38.038635%)" d="M 246.339844 408.304688 C 245.25 408.304688 244.289062 407.523438 244.105469 406.410156 C 243.328125 401.691406 243.8125 396.597656 245.460938 392.054688 C 248.199219 384.554688 253.789062 377.636719 262.5625 370.898438 C 263.523438 370.160156 264.496094 369.441406 265.472656 368.722656 C 269.292969 365.898438 272.902344 363.234375 275.554688 359.691406 C 277.007812 357.777344 278.152344 355.667969 279.058594 353.242188 C 281.097656 347.890625 281.734375 341.949219 282.40625 335.660156 C 282.902344 331.039062 283.414062 326.257812 284.535156 321.699219 C 285.125 319.3125 285.898438 316.996094 286.835938 314.808594 C 288.402344 311.039062 290.480469 307.429688 292.984375 304.097656 C 299 296.070312 307.449219 289.703125 316.769531 286.183594 C 321.398438 284.441406 326.179688 283.414062 330.980469 283.144531 C 340.265625 282.601562 349.105469 284.570312 358.867188 287 L 360.855469 287.480469 C 365.660156 288.667969 370.628906 289.886719 375.535156 290.652344 C 376.769531 290.847656 377.613281 292.007812 377.417969 293.242188 C 377.222656 294.480469 376.0625 295.308594 374.835938 295.128906 C 369.742188 294.324219 364.675781 293.082031 359.777344 291.878906 L 357.789062 291.390625 C 348.378906 289.054688 339.882812 287.164062 331.238281 287.664062 C 326.894531 287.914062 322.566406 288.835938 318.367188 290.421875 C 309.84375 293.640625 302.117188 299.460938 296.605469 306.816406 C 294.324219 309.851562 292.4375 313.128906 291.003906 316.574219 C 290.15625 318.554688 289.460938 320.640625 288.933594 322.78125 C 287.886719 327.042969 287.390625 331.667969 286.914062 336.136719 C 286.234375 342.4375 285.539062 348.953125 283.292969 354.839844 C 282.238281 357.671875 280.886719 360.152344 279.171875 362.414062 C 276.128906 366.476562 272.078125 369.472656 268.164062 372.359375 C 267.207031 373.066406 266.253906 373.769531 265.320312 374.488281 C 257.25 380.683594 252.148438 386.9375 249.71875 393.605469 C 248.328125 397.425781 247.921875 401.714844 248.574219 405.675781 C 248.777344 406.910156 247.945312 408.078125 246.707031 408.277344 C 246.582031 408.292969 246.460938 408.304688 246.339844 408.304688 " fill-opacity="1" fill-rule="nonzero"/><path fill="rgb(91.369629%, 76.078796%, 38.038635%)" d="M 195.636719 277.855469 C 194.421875 277.855469 193.207031 277.820312 191.984375 277.742188 C 190.734375 277.667969 189.785156 276.59375 189.863281 275.34375 C 189.9375 274.101562 191.035156 273.152344 192.261719 273.226562 C 197.640625 273.550781 202.992188 273.097656 208.171875 271.859375 C 209.390625 271.570312 210.609375 272.320312 210.898438 273.539062 C 211.1875 274.753906 210.441406 275.976562 209.226562 276.265625 C 204.785156 277.324219 200.226562 277.855469 195.636719 277.855469 " fill-opacity="1" fill-rule="nonzero"/><path fill="rgb(91.369629%, 76.078796%, 38.038635%)" d="M 228.835938 351.445312 C 227.699219 351.445312 226.71875 350.589844 226.589844 349.4375 C 226.449219 348.191406 227.34375 347.070312 228.589844 346.929688 C 231.035156 346.660156 233.175781 346.371094 235.132812 346.058594 C 240.875 345.113281 245.0625 343.925781 248.707031 342.191406 C 261.0625 336.347656 268.109375 323.847656 273.375 312.386719 C 273.894531 311.25 275.242188 310.75 276.375 311.273438 C 277.515625 311.792969 278.015625 313.136719 277.492188 314.273438 C 272.214844 325.761719 264.394531 339.785156 250.644531 346.28125 C 246.605469 348.203125 242.050781 349.511719 235.859375 350.527344 C 233.828125 350.855469 231.613281 351.152344 229.089844 351.433594 C 229 351.441406 228.917969 351.445312 228.835938 351.445312 " fill-opacity="1" fill-rule="nonzero"/><path fill="rgb(91.369629%, 76.078796%, 38.038635%)" d="M 212.675781 334.515625 C 211.519531 334.515625 210.535156 333.632812 210.429688 332.457031 C 210.308594 331.214844 211.222656 330.113281 212.46875 329.996094 C 218.648438 329.421875 224.53125 327.800781 229.972656 325.167969 C 238.730469 320.957031 246.382812 313.992188 251.519531 305.554688 C 252.171875 304.480469 253.5625 304.144531 254.632812 304.792969 C 255.699219 305.449219 256.035156 306.839844 255.386719 307.90625 C 249.796875 317.085938 241.472656 324.660156 231.941406 329.246094 C 226.015625 332.109375 219.601562 333.878906 212.886719 334.503906 C 212.816406 334.511719 212.746094 334.515625 212.675781 334.515625 " fill-opacity="1" fill-rule="nonzero"/><path fill="rgb(91.369629%, 76.078796%, 38.038635%)" d="M 199 308.046875 C 198.695312 308.046875 198.382812 308.042969 198.074219 308.019531 C 196.832031 307.925781 195.894531 306.839844 195.988281 305.589844 C 196.082031 304.347656 197.148438 303.410156 198.421875 303.507812 C 198.722656 303.535156 199.03125 303.527344 199.332031 303.523438 L 199.726562 303.523438 C 210.296875 303.316406 220.742188 298.828125 226.929688 291.808594 C 227.757812 290.871094 229.191406 290.78125 230.128906 291.609375 C 231.066406 292.4375 231.152344 293.867188 230.328125 294.804688 C 223.214844 302.859375 211.789062 307.8125 199.773438 308.046875 L 199.378906 308.046875 C 199.25 308.046875 199.125 308.046875 199 308.046875 " fill-opacity="1" fill-rule="nonzero"/><path fill="rgb(91.369629%, 76.078796%, 38.038635%)" d="M 231.761719 480.582031 C 231.105469 480.582031 230.457031 480.300781 230.007812 479.75 C 226.335938 475.269531 223.570312 470.238281 221.789062 464.777344 C 220.535156 460.964844 219.796875 457.0625 219.597656 453.175781 C 219.53125 451.925781 220.492188 450.867188 221.742188 450.800781 C 222.988281 450.753906 224.054688 451.699219 224.117188 452.949219 C 224.296875 456.425781 224.960938 459.933594 226.09375 463.371094 C 227.679688 468.226562 230.246094 472.902344 233.511719 476.878906 C 234.300781 477.847656 234.160156 479.273438 233.191406 480.070312 C 232.773438 480.410156 232.261719 480.582031 231.761719 480.582031 " fill-opacity="1" fill-rule="nonzero"/><g clip-path="url(#id2)"><path fill="rgb(91.369629%, 76.078796%, 38.038635%)" d="M 523.007812 423.703125 C 522.191406 423.703125 521.40625 423.261719 521 422.484375 C 520.421875 421.375 520.855469 420.007812 521.964844 419.429688 C 531.070312 414.703125 540.769531 411.625 550.792969 410.285156 C 558.039062 409.320312 565.40625 409.273438 572.535156 409.226562 C 577.929688 409.191406 583.515625 409.15625 588.933594 408.71875 C 604.09375 407.515625 619.191406 403.035156 632.605469 395.769531 C 635.128906 394.394531 637.675781 392.886719 640.140625 391.425781 C 646.769531 387.492188 653.621094 383.425781 661.296875 381.300781 C 662.246094 381.042969 663.253906 380.8125 664.308594 380.625 C 670.207031 379.523438 676.261719 379.929688 681.335938 381.769531 C 682.511719 382.199219 683.117188 383.496094 682.691406 384.667969 C 682.261719 385.847656 680.964844 386.453125 679.792969 386.023438 C 675.464844 384.457031 670.265625 384.121094 665.121094 385.082031 C 664.183594 385.253906 663.308594 385.445312 662.492188 385.664062 C 655.410156 387.628906 649.113281 391.363281 642.445312 395.320312 C 639.953125 396.800781 637.371094 398.332031 634.765625 399.746094 C 620.796875 407.316406 605.078125 411.980469 589.292969 413.230469 C 583.710938 413.683594 578.042969 413.71875 572.566406 413.753906 C 565.578125 413.800781 558.355469 413.847656 551.394531 414.773438 C 541.886719 416.039062 532.691406 418.964844 524.054688 423.449219 C 523.722656 423.621094 523.363281 423.703125 523.007812 423.703125 " fill-opacity="1" fill-rule="nonzero"/></g><path fill="rgb(91.369629%, 76.078796%, 38.038635%)" d="M 503.570312 363.582031 C 502.761719 363.582031 501.984375 363.148438 501.570312 362.378906 C 500.980469 361.285156 501.398438 359.910156 502.503906 359.320312 C 508.730469 355.996094 514.648438 352 520.097656 347.441406 C 525.992188 342.503906 531.3125 336.925781 535.902344 330.886719 C 539.148438 326.609375 542.03125 322.109375 544.464844 317.503906 C 546.570312 313.554688 548.433594 309.34375 550.011719 304.996094 C 553.460938 295.539062 555.480469 285.570312 556.003906 275.367188 C 556.511719 266 555.710938 256.695312 553.628906 247.6875 C 553.34375 246.382812 553.03125 245.105469 552.683594 243.855469 C 552.058594 241.550781 551.316406 239.175781 550.472656 236.78125 C 544.128906 218.5625 532.980469 201.90625 522.195312 185.808594 C 513.65625 173.066406 504.832031 159.878906 498.238281 145.789062 C 492.472656 133.457031 488.261719 120.054688 485.714844 105.953125 C 481.964844 85.199219 481.8125 63.351562 485.269531 41.023438 C 488.476562 20.355469 495.863281 6.746094 507.230469 0.574219 C 508.328125 -0.0234375 509.703125 0.378906 510.304688 1.480469 C 510.898438 2.578125 510.492188 3.949219 509.394531 4.546875 C 499.332031 10.015625 492.726562 22.519531 489.742188 41.71875 C 486.363281 63.546875 486.511719 84.890625 490.175781 105.144531 C 492.644531 118.863281 496.742188 131.894531 502.34375 143.875 C 508.789062 157.648438 517.515625 170.683594 525.957031 183.292969 C 536.902344 199.625 548.214844 216.519531 554.746094 235.289062 C 555.625 237.773438 556.398438 240.257812 557.054688 242.664062 C 557.417969 243.980469 557.753906 245.339844 558.050781 246.695312 C 560.21875 256.085938 561.050781 265.820312 560.527344 275.609375 C 559.976562 286.253906 557.871094 296.664062 554.265625 306.539062 C 552.621094 311.085938 550.667969 315.488281 548.46875 319.625 C 545.914062 324.441406 542.902344 329.152344 539.511719 333.621094 C 534.714844 339.933594 529.160156 345.757812 523.003906 350.914062 C 517.3125 355.671875 511.132812 359.847656 504.636719 363.3125 C 504.300781 363.496094 503.929688 363.582031 503.570312 363.582031 " fill-opacity="1" fill-rule="nonzero"/><path fill="rgb(91.369629%, 76.078796%, 38.038635%)" d="M 570.707031 376.492188 C 570.023438 376.492188 569.359375 376.191406 568.910156 375.609375 C 568.144531 374.617188 568.332031 373.199219 569.324219 372.4375 C 570.230469 371.734375 571.121094 370.976562 571.871094 370.320312 C 577.625 365.308594 583.167969 359.097656 589.328125 350.773438 C 591.363281 348.015625 593.386719 345.160156 595.34375 342.296875 C 609.28125 321.972656 622.375 299.753906 623.804688 274.980469 C 623.980469 271.730469 623.960938 268.441406 623.742188 265.210938 C 622.960938 252.65625 619.476562 239.363281 612.78125 223.363281 C 601.078125 195.5 583.761719 169.328125 562.707031 147.683594 C 559.523438 144.398438 556.175781 141.140625 552.9375 137.992188 C 545.921875 131.152344 538.664062 124.085938 532.441406 116.226562 C 510.769531 88.828125 502.355469 50.703125 510.492188 16.722656 C 510.929688 14.9375 511.171875 12.96875 511.171875 11.164062 C 511.171875 8.40625 510.632812 5.058594 508.09375 4.8125 C 506.847656 4.6875 505.933594 3.585938 506.058594 2.339844 C 506.183594 1.089844 507.285156 0.183594 508.535156 0.308594 C 513.085938 0.75 515.699219 4.710938 515.699219 11.164062 C 515.699219 13.324219 515.410156 15.675781 514.890625 17.792969 C 507.070312 50.4375 515.15625 87.085938 535.992188 113.417969 C 542.035156 121.050781 549.183594 128.011719 556.097656 134.75 C 559.359375 137.921875 562.726562 141.203125 565.957031 144.527344 C 587.394531 166.570312 605.035156 193.230469 616.957031 221.613281 C 623.855469 238.097656 627.445312 251.855469 628.261719 264.917969 C 628.496094 268.324219 628.515625 271.796875 628.320312 275.234375 C 626.832031 301.121094 613.390625 323.988281 599.082031 344.847656 C 597.097656 347.761719 595.042969 350.660156 592.972656 353.460938 C 586.609375 362.0625 580.851562 368.5 574.847656 373.734375 C 574.046875 374.433594 573.085938 375.25 572.089844 376.019531 C 571.675781 376.339844 571.1875 376.492188 570.707031 376.492188 " fill-opacity="1" fill-rule="nonzero"/><path fill="rgb(91.369629%, 76.078796%, 38.038635%)" d="M 483.839844 500.375 C 478.683594 500.375 473.375 497.707031 468.890625 492.859375 C 466.980469 490.78125 465.363281 488.527344 464.023438 486.601562 C 463.316406 485.570312 463.570312 484.164062 464.601562 483.453125 C 465.621094 482.738281 467.039062 482.992188 467.75 484.03125 C 468.996094 485.828125 470.5 487.921875 472.21875 489.789062 C 474.3125 492.054688 478.605469 495.847656 483.835938 495.847656 C 483.851562 495.847656 483.863281 495.847656 483.875 495.847656 C 487.367188 495.832031 491.136719 494.035156 494.484375 490.78125 C 500.679688 484.742188 503.273438 476.449219 504.359375 470.550781 C 505.46875 464.558594 505.570312 458.433594 505.515625 453.234375 C 505.503906 451.988281 506.507812 450.960938 507.757812 450.949219 C 507.769531 450.949219 507.773438 450.949219 507.78125 450.949219 C 509.023438 450.949219 510.03125 451.949219 510.042969 453.1875 C 510.097656 458.605469 509.992188 465.003906 508.8125 471.367188 C 507.089844 480.753906 503.226562 488.585938 497.636719 494.027344 C 493.445312 498.101562 488.5625 500.351562 483.894531 500.375 C 483.875 500.375 483.859375 500.375 483.839844 500.375 " fill-opacity="1" fill-rule="nonzero"/><path fill="rgb(91.369629%, 76.078796%, 38.038635%)" d="M 477.316406 521.519531 C 476.042969 521.519531 474.765625 521.457031 473.5 521.332031 C 472.253906 521.214844 471.347656 520.105469 471.472656 518.863281 C 471.589844 517.617188 472.691406 516.691406 473.941406 516.828125 C 487.480469 518.144531 501.640625 511.429688 509.175781 500.117188 C 511.382812 496.804688 513.097656 493.121094 514.277344 489.175781 C 514.636719 487.980469 515.910156 487.308594 517.09375 487.65625 C 518.292969 488.015625 518.976562 489.277344 518.617188 490.472656 C 517.308594 494.847656 515.398438 498.9375 512.945312 502.621094 C 505.214844 514.234375 491.253906 521.519531 477.316406 521.519531 " fill-opacity="1" fill-rule="nonzero"/><path fill="rgb(91.369629%, 76.078796%, 38.038635%)" d="M 516.445312 492.070312 C 516.230469 492.070312 516.003906 492.042969 515.78125 491.96875 C 514.582031 491.605469 513.917969 490.335938 514.28125 489.140625 C 515.332031 485.738281 516.035156 482.039062 516.375 478.140625 C 516.480469 476.890625 517.597656 475.972656 518.824219 476.078125 C 520.066406 476.191406 520.992188 477.285156 520.878906 478.53125 C 520.519531 482.746094 519.753906 486.765625 518.609375 490.472656 C 518.316406 491.445312 517.414062 492.070312 516.445312 492.070312 " fill-opacity="1" fill-rule="nonzero"/><path fill="rgb(91.369629%, 76.078796%, 38.038635%)" d="M 518.632812 480.582031 C 518.5625 480.582031 518.492188 480.574219 518.421875 480.570312 C 517.179688 480.457031 516.257812 479.355469 516.375 478.113281 C 516.941406 471.828125 516.683594 464.917969 515.570312 456.980469 C 515.398438 455.742188 516.257812 454.597656 517.503906 454.425781 C 518.734375 454.25 519.878906 455.109375 520.054688 456.355469 C 521.21875 464.636719 521.480469 471.894531 520.878906 478.523438 C 520.773438 479.699219 519.789062 480.582031 518.632812 480.582031 " fill-opacity="1" fill-rule="nonzero"/><g clip-path="url(#id3)"><path fill="rgb(91.369629%, 76.078796%, 38.038635%)" d="M 374.789062 750 C 373.539062 750 372.523438 748.988281 372.523438 747.738281 C 372.523438 746.488281 373.539062 745.472656 374.789062 745.472656 L 374.917969 745.472656 C 380.890625 745.316406 386.785156 744.621094 391.761719 743.953125 L 395.035156 743.546875 C 395.070312 743.539062 395.097656 743.535156 395.136719 743.527344 C 396.019531 743.394531 396.910156 743.257812 397.792969 743.140625 C 405.84375 742.039062 413.472656 740.617188 418.199219 735.507812 C 420.167969 733.371094 421.65625 730.570312 422.742188 726.953125 C 423.101562 725.757812 424.363281 725.070312 425.558594 725.433594 C 426.753906 725.792969 427.441406 727.054688 427.078125 728.25 C 425.792969 732.539062 423.980469 735.925781 421.527344 738.578125 C 415.777344 744.796875 407.308594 746.40625 398.402344 747.625 C 397.527344 747.742188 396.671875 747.875 395.8125 748.003906 C 395.753906 748.015625 395.695312 748.019531 395.628906 748.027344 L 395.628906 748.03125 L 392.335938 748.449219 C 387.261719 749.121094 381.21875 749.835938 374.976562 749.996094 C 374.957031 750 374.804688 750 374.789062 750 " fill-opacity="1" fill-rule="nonzero"/></g><path fill="rgb(91.369629%, 76.078796%, 38.038635%)" d="M 459.632812 684.378906 C 458.859375 684.378906 458.105469 683.984375 457.679688 683.265625 C 457.042969 682.1875 457.402344 680.800781 458.476562 680.167969 C 472.160156 672.085938 483.167969 658.3125 492.011719 647.253906 C 498.324219 639.375 505.472656 630.445312 508.511719 620.210938 C 511.789062 609.121094 510.183594 597.652344 508.492188 585.507812 C 507.496094 578.347656 506.464844 570.941406 506.523438 563.613281 C 506.617188 553.242188 508.90625 543.042969 511.117188 533.175781 C 512.113281 528.734375 513.144531 524.144531 513.953125 519.628906 C 514.28125 517.808594 514.554688 516.019531 514.773438 514.324219 C 516 505.070312 515.820312 497.230469 514.242188 490.332031 C 514.199219 490.167969 514.183594 489.996094 514.183594 489.824219 C 514.183594 488.574219 515.195312 487.554688 516.445312 487.554688 C 517.574219 487.554688 518.511719 488.367188 518.679688 489.449219 C 520.363281 496.84375 520.550781 505.175781 519.265625 514.90625 C 519.042969 516.664062 518.753906 518.527344 518.410156 520.429688 C 517.585938 525.039062 516.546875 529.679688 515.539062 534.164062 C 513.375 543.796875 511.140625 553.765625 511.050781 563.65625 C 510.992188 570.648438 512 577.878906 512.980469 584.878906 C 514.667969 596.96875 516.40625 609.46875 512.855469 621.5 C 509.558594 632.582031 502.121094 641.878906 495.550781 650.085938 C 486.476562 661.433594 475.179688 675.554688 460.78125 684.0625 C 460.421875 684.273438 460.019531 684.378906 459.632812 684.378906 " fill-opacity="1" fill-rule="nonzero"/><path fill="rgb(91.369629%, 76.078796%, 38.038635%)" d="M 459.632812 684.378906 C 459.46875 684.378906 459.296875 684.363281 459.125 684.320312 C 457.90625 684.042969 457.144531 682.824219 457.421875 681.609375 C 460.511719 668.160156 460.65625 653.007812 457.859375 637.800781 C 454.367188 618.738281 447.101562 600.257812 440.082031 582.378906 C 436.777344 573.984375 433.371094 565.308594 430.371094 556.640625 C 429.964844 555.457031 430.589844 554.171875 431.773438 553.757812 C 432.953125 553.351562 434.242188 553.984375 434.652344 555.164062 C 437.617188 563.738281 441.011719 572.375 444.296875 580.726562 C 451.394531 598.800781 458.742188 617.488281 462.316406 636.980469 C 465.226562 652.789062 465.0625 668.578125 461.835938 682.625 C 461.59375 683.671875 460.664062 684.378906 459.632812 684.378906 " fill-opacity="1" fill-rule="nonzero"/><path fill="rgb(91.369629%, 76.078796%, 38.038635%)" d="M 424.929688 729.847656 C 423.964844 729.847656 423.070312 729.226562 422.769531 728.265625 C 422.386719 727.078125 423.046875 725.804688 424.242188 725.425781 C 429.195312 723.851562 434.121094 720.714844 438.882812 716.101562 C 447.957031 707.300781 454.195312 695.703125 457.421875 681.628906 C 457.703125 680.414062 458.917969 679.648438 460.140625 679.929688 C 461.355469 680.207031 462.113281 681.421875 461.835938 682.640625 C 458.410156 697.585938 451.75 709.929688 442.03125 719.347656 C 436.761719 724.460938 431.238281 727.953125 425.613281 729.742188 C 425.382812 729.8125 425.152344 729.847656 424.929688 729.847656 " fill-opacity="1" fill-rule="nonzero"/><path fill="rgb(91.369629%, 76.078796%, 38.038635%)" d="M 413.726562 731.339844 C 411.507812 731.339844 409.296875 731.230469 407.128906 731.132812 L 391.195312 730.355469 C 385.832031 730.101562 380.449219 729.847656 375.070312 729.574219 C 373.820312 729.515625 372.859375 728.449219 372.925781 727.207031 C 372.984375 725.949219 374.050781 725 375.300781 725.054688 C 380.671875 725.324219 386.050781 725.578125 391.410156 725.832031 L 407.347656 726.609375 C 411.644531 726.8125 416.09375 727.015625 420.253906 726.367188 C 420.902344 726.261719 421.554688 726.140625 422.199219 725.996094 C 422.886719 725.84375 423.566406 725.648438 424.230469 725.445312 C 425.421875 725.066406 426.691406 725.734375 427.066406 726.921875 C 427.445312 728.113281 426.777344 729.386719 425.589844 729.757812 C 424.714844 730.035156 423.929688 730.246094 423.183594 730.414062 C 422.457031 730.578125 421.707031 730.71875 420.964844 730.835938 C 418.558594 731.214844 416.132812 731.339844 413.726562 731.339844 " fill-opacity="1" fill-rule="nonzero"/><path fill="rgb(91.369629%, 76.078796%, 38.038635%)" d="M 452.25 522.199219 C 451.808594 522.199219 451.367188 522.070312 450.972656 521.796875 C 449.9375 521.089844 449.679688 519.683594 450.386719 518.648438 C 453.257812 514.476562 454.695312 509.523438 456.21875 504.285156 C 456.597656 502.980469 456.972656 501.683594 457.375 500.398438 C 459.078125 494.871094 461.257812 489.449219 463.867188 484.296875 C 466.925781 478.152344 470.597656 472.300781 474.773438 466.886719 C 477.875 462.886719 482.160156 457.875 487.902344 454.519531 C 493.746094 451.109375 500.933594 449.847656 508.132812 450.976562 C 511.953125 451.597656 515.574219 452.835938 518.898438 454.664062 C 519.625 455.058594 520.078125 455.816406 520.078125 456.648438 C 520.078125 457.898438 519.066406 458.917969 517.816406 458.917969 C 517.335938 458.917969 516.902344 458.777344 516.535156 458.53125 C 513.71875 457.007812 510.652344 455.972656 507.421875 455.445312 C 501.246094 454.484375 495.125 455.542969 490.1875 458.429688 C 485.113281 461.386719 481.199219 465.988281 478.351562 469.660156 C 474.359375 474.828125 470.847656 480.441406 467.917969 486.324219 C 465.417969 491.261719 463.328125 496.445312 461.703125 501.730469 C 461.308594 503 460.933594 504.273438 460.5625 505.550781 C 459.011719 510.90625 457.402344 516.441406 454.121094 521.214844 C 453.683594 521.851562 452.976562 522.199219 452.25 522.199219 " fill-opacity="1" fill-rule="nonzero"/><path fill="rgb(91.369629%, 76.078796%, 38.038635%)" d="M 524.59375 465.320312 C 524.59375 465.320312 524.59375 465.320312 524.601562 465.328125 C 524.59375 465.320312 524.59375 465.320312 524.59375 465.320312 Z M 526.9375 466.988281 C 526.230469 466.988281 525.53125 466.652344 525.089844 466.035156 C 525.03125 465.957031 524.980469 465.875 524.914062 465.796875 C 524.847656 465.722656 524.789062 465.644531 524.738281 465.5625 C 523.96875 464.667969 524.023438 463.316406 524.871094 462.480469 C 525.769531 461.605469 527.203125 461.625 528.078125 462.507812 C 528.234375 462.671875 528.367188 462.839844 528.488281 463.015625 C 528.59375 463.152344 528.6875 463.28125 528.78125 463.410156 C 529.5 464.429688 529.265625 465.84375 528.246094 466.570312 C 527.851562 466.851562 527.390625 466.988281 526.9375 466.988281 " fill-opacity="1" fill-rule="nonzero"/><path fill="rgb(91.369629%, 76.078796%, 38.038635%)" d="M 526.628906 466.585938 C 526.371094 466.585938 526.105469 466.546875 525.84375 466.445312 C 524.679688 466.015625 524.070312 464.714844 524.507812 463.539062 C 529.4375 450.183594 528.144531 434.863281 521.046875 422.570312 C 520.097656 420.910156 519.042969 419.3125 517.910156 417.820312 C 514.84375 413.8125 511.710938 411.125 508.332031 409.601562 C 506.9375 408.972656 505.421875 408.53125 503.695312 408.257812 C 499.691406 407.652344 495.148438 408.210938 490.585938 409.890625 C 484.601562 412.121094 479.171875 415.933594 473.925781 419.628906 C 462.679688 427.554688 449.9375 436.53125 443.351562 449.535156 C 442.785156 450.652344 441.417969 451.097656 440.304688 450.53125 C 439.191406 449.96875 438.742188 448.601562 439.308594 447.488281 C 446.40625 433.484375 459.644531 424.15625 471.316406 415.929688 C 476.800781 412.066406 482.472656 408.078125 489.019531 405.648438 C 494.308594 403.695312 499.621094 403.058594 504.390625 403.785156 C 506.535156 404.128906 508.429688 404.679688 510.195312 405.476562 C 514.269531 407.304688 517.972656 410.445312 521.511719 415.078125 C 522.765625 416.722656 523.929688 418.488281 524.972656 420.3125 C 532.730469 433.753906 534.148438 450.5 528.757812 465.109375 C 528.414062 466.023438 527.550781 466.585938 526.628906 466.585938 " fill-opacity="1" fill-rule="nonzero"/><g clip-path="url(#id4)"><path fill="rgb(91.369629%, 76.078796%, 38.038635%)" d="M 517.019531 516.871094 C 516.207031 516.871094 515.421875 516.433594 515.015625 515.660156 C 514.429688 514.558594 514.855469 513.1875 515.957031 512.609375 C 526.203125 507.195312 535.710938 500.40625 544.195312 492.425781 C 545.785156 490.921875 547.507812 489.164062 547.726562 487.273438 C 547.824219 486.421875 547.726562 485.328125 547.625 484.273438 C 547.367188 481.53125 547.011719 477.78125 550.492188 476.109375 C 554.605469 474.121094 557.679688 477.980469 559.710938 480.539062 C 559.953125 480.847656 560.191406 481.140625 560.425781 481.425781 C 566.210938 488.367188 578.242188 484.417969 586.792969 478.914062 C 619.441406 457.90625 645.027344 427.710938 669.769531 398.515625 C 672.992188 394.703125 677.386719 389 678.328125 383.511719 C 678.707031 381.203125 678.472656 379.144531 677.605469 377.222656 C 676.636719 375.089844 674.964844 373.363281 672.621094 372.101562 C 672.5625 372.078125 672.503906 372.046875 672.445312 372.019531 C 668.890625 370.132812 663.753906 369.210938 657.339844 369.210938 C 655.765625 369.210938 654.195312 369.246094 652.636719 369.308594 C 638.863281 369.671875 624.757812 371.324219 611.113281 372.921875 C 598.144531 374.433594 584.722656 376.007812 571.617188 376.46875 L 571.214844 376.480469 C 571.042969 376.488281 570.875 376.492188 570.703125 376.492188 C 552.609375 377.0625 537.777344 375.40625 524.101562 371.277344 C 518.457031 369.566406 512.921875 367.402344 507.574219 365.304688 C 505.96875 364.671875 504.367188 364.042969 502.761719 363.429688 C 498.46875 361.753906 493.375 359.859375 488.003906 358.425781 C 481.394531 356.65625 475.105469 355.9375 469.324219 356.28125 C 468.027344 356.339844 467.003906 355.394531 466.929688 354.152344 C 466.855469 352.902344 467.808594 351.828125 469.054688 351.757812 C 475.328125 351.386719 482.097656 352.160156 489.171875 354.046875 C 494.761719 355.542969 500.003906 357.492188 504.394531 359.210938 C 506 359.820312 507.609375 360.453125 509.222656 361.089844 C 514.496094 363.152344 519.941406 365.285156 525.410156 366.941406 C 538.605469 370.929688 552.984375 372.519531 570.632812 371.964844 L 571.054688 371.953125 C 571.222656 371.949219 571.378906 371.949219 571.539062 371.949219 C 584.375 371.488281 597.699219 369.933594 610.589844 368.421875 C 624.328125 366.8125 638.539062 365.152344 652.492188 364.78125 C 654.167969 364.722656 655.878906 364.691406 657.570312 364.683594 C 664.582031 364.683594 670.246094 365.777344 674.402344 367.933594 C 674.460938 367.957031 674.519531 367.988281 674.578125 368.015625 C 677.910156 369.761719 680.316406 372.238281 681.730469 375.359375 C 682.957031 378.085938 683.316406 381.074219 682.800781 384.261719 C 681.671875 390.789062 677.089844 396.863281 673.222656 401.4375 C 648.265625 430.890625 622.457031 461.339844 589.246094 482.722656 C 579.140625 489.222656 564.625 493.542969 556.941406 484.3125 C 556.6875 484.007812 556.429688 483.6875 556.167969 483.359375 C 555.03125 481.925781 553.304688 479.769531 552.460938 480.1875 C 551.863281 480.46875 551.949219 481.882812 552.136719 483.847656 C 552.253906 485.136719 552.378906 486.484375 552.222656 487.796875 C 551.847656 491.039062 549.636719 493.519531 547.300781 495.71875 C 538.515625 503.976562 528.679688 511.003906 518.074219 516.609375 C 517.738281 516.789062 517.378906 516.871094 517.019531 516.871094 " fill-opacity="1" fill-rule="nonzero"/></g><path fill="rgb(91.369629%, 76.078796%, 38.038635%)" d="M 461.464844 317.945312 C 460.351562 317.945312 459.378906 317.121094 459.226562 315.984375 C 459.058594 314.738281 459.925781 313.601562 461.171875 313.4375 C 465.585938 312.847656 470.0625 312.058594 474.472656 311.097656 C 482.109375 309.441406 489.382812 307.257812 496.097656 304.605469 C 497.933594 303.910156 499.8125 303.113281 501.890625 302.171875 C 504.324219 301.074219 506.71875 299.890625 509.019531 298.652344 C 512.945312 296.542969 516.777344 294.125 520.421875 291.460938 C 523.257812 289.410156 525.988281 287.199219 528.539062 284.882812 C 532.753906 281.082031 536.582031 276.976562 539.917969 272.675781 C 546.324219 264.457031 550.945312 255.660156 553.667969 246.53125 C 554.023438 245.335938 555.285156 244.65625 556.480469 245.011719 C 557.683594 245.363281 558.363281 246.625 558.007812 247.828125 C 555.125 257.496094 550.242188 266.792969 543.492188 275.457031 C 539.996094 279.960938 535.988281 284.261719 531.582031 288.238281 C 528.90625 290.664062 526.046875 292.980469 523.085938 295.121094 C 519.28125 297.902344 515.269531 300.433594 511.164062 302.636719 C 508.777344 303.929688 506.28125 305.160156 503.757812 306.292969 C 501.605469 307.277344 499.636719 308.109375 497.738281 308.828125 C 490.824219 311.554688 483.304688 313.8125 475.433594 315.523438 C 470.910156 316.507812 466.3125 317.316406 461.773438 317.921875 C 461.667969 317.941406 461.566406 317.945312 461.464844 317.945312 " fill-opacity="1" fill-rule="nonzero"/><path fill="rgb(91.369629%, 76.078796%, 38.038635%)" d="M 504.046875 408.289062 C 503.921875 408.289062 503.800781 408.277344 503.675781 408.257812 C 502.445312 408.054688 501.605469 406.890625 501.8125 405.652344 C 502.457031 401.738281 502.046875 397.453125 500.664062 393.59375 C 498.238281 386.9375 493.140625 380.691406 485.066406 374.488281 C 484.128906 373.769531 483.175781 373.066406 482.21875 372.359375 C 478.304688 369.464844 474.253906 366.476562 471.210938 362.410156 C 469.527344 360.1875 468.175781 357.707031 467.074219 354.824219 C 464.839844 348.941406 464.148438 342.445312 463.476562 336.167969 C 463 331.6875 462.503906 327.054688 461.453125 322.78125 C 460.941406 320.710938 460.246094 318.617188 459.382812 316.554688 C 457.957031 313.140625 456.078125 309.863281 453.785156 306.824219 C 448.277344 299.449219 440.5625 293.636719 432.054688 290.441406 C 432.007812 290.421875 431.96875 290.40625 431.921875 290.382812 C 427.753906 288.824219 423.453125 287.90625 419.144531 287.664062 C 410.496094 287.15625 402.007812 289.054688 392.605469 291.390625 L 391.386719 291.691406 C 386.226562 292.96875 380.890625 294.285156 375.535156 295.128906 C 374.304688 295.316406 373.140625 294.480469 372.949219 293.242188 C 372.753906 292.007812 373.597656 290.847656 374.835938 290.652344 C 379.992188 289.84375 385.234375 288.550781 390.292969 287.300781 L 391.519531 287 C 401.285156 284.570312 410.128906 282.613281 419.402344 283.144531 C 424.207031 283.414062 428.992188 284.441406 433.613281 286.183594 C 433.652344 286.203125 433.6875 286.214844 433.730469 286.230469 C 443.003906 289.734375 451.414062 296.082031 457.402344 304.105469 C 459.921875 307.449219 461.992188 311.050781 463.558594 314.808594 C 464.515625 317.078125 465.285156 319.402344 465.851562 321.699219 C 466.972656 326.269531 467.484375 331.054688 467.980469 335.683594 C 468.648438 341.957031 469.285156 347.878906 471.304688 353.214844 C 472.25 355.691406 473.398438 357.804688 474.828125 359.6875 C 477.480469 363.230469 481.09375 365.894531 484.910156 368.71875 C 485.886719 369.4375 486.867188 370.160156 487.820312 370.898438 C 496.601562 377.636719 502.191406 384.554688 504.921875 392.054688 C 506.566406 396.640625 507.046875 401.726562 506.28125 406.390625 C 506.09375 407.5 505.136719 408.289062 504.046875 408.289062 " fill-opacity="1" fill-rule="nonzero"/><path fill="rgb(91.369629%, 76.078796%, 38.038635%)" d="M 554.820312 277.851562 C 550.171875 277.851562 545.597656 277.320312 541.179688 276.265625 C 539.964844 275.976562 539.21875 274.753906 539.507812 273.539062 C 539.796875 272.320312 541.015625 271.570312 542.238281 271.859375 C 547.347656 273.082031 552.703125 273.539062 558.132812 273.226562 C 559.351562 273.167969 560.449219 274.105469 560.527344 275.355469 C 560.597656 276.601562 559.640625 277.671875 558.390625 277.742188 C 557.199219 277.816406 556.003906 277.851562 554.820312 277.851562 " fill-opacity="1" fill-rule="nonzero"/><path fill="rgb(91.369629%, 76.078796%, 38.038635%)" d="M 521.554688 351.445312 C 521.46875 351.445312 521.382812 351.441406 521.300781 351.433594 C 518.757812 351.152344 516.554688 350.855469 514.546875 350.527344 C 508.480469 349.535156 503.777344 348.1875 499.738281 346.28125 C 486.015625 339.785156 478.1875 325.757812 472.898438 314.253906 C 472.375 313.125 472.867188 311.773438 474.007812 311.253906 C 475.140625 310.730469 476.488281 311.226562 477.007812 312.363281 C 482.289062 323.839844 489.347656 336.355469 501.675781 342.183594 C 505.316406 343.90625 509.636719 345.136719 515.28125 346.058594 C 517.203125 346.371094 519.335938 346.660156 521.800781 346.929688 C 523.039062 347.070312 523.933594 348.191406 523.800781 349.4375 C 523.667969 350.589844 522.691406 351.445312 521.554688 351.445312 " fill-opacity="1" fill-rule="nonzero"/><path fill="rgb(91.369629%, 76.078796%, 38.038635%)" d="M 537.707031 334.515625 C 537.636719 334.515625 537.566406 334.511719 537.496094 334.503906 C 530.78125 333.878906 524.371094 332.109375 518.441406 329.246094 C 508.910156 324.648438 500.585938 317.066406 494.996094 307.890625 C 494.347656 306.824219 494.691406 305.429688 495.757812 304.777344 C 496.824219 304.128906 498.214844 304.464844 498.863281 305.539062 C 504.007812 313.972656 511.660156 320.945312 520.410156 325.167969 C 525.851562 327.800781 531.742188 329.421875 537.914062 329.996094 C 539.160156 330.113281 540.078125 331.214844 539.960938 332.457031 C 539.847656 333.632812 538.863281 334.515625 537.707031 334.515625 " fill-opacity="1" fill-rule="nonzero"/><path fill="rgb(91.369629%, 76.078796%, 38.038635%)" d="M 551.386719 308.046875 C 551.257812 308.046875 551.132812 308.046875 551.011719 308.046875 L 550.65625 308.046875 C 538.585938 307.8125 527.167969 302.855469 520.054688 294.785156 C 519.230469 293.847656 519.324219 292.414062 520.261719 291.589844 C 521.199219 290.765625 522.632812 290.855469 523.457031 291.789062 C 529.640625 298.824219 540.085938 303.316406 550.703125 303.523438 L 551.058594 303.523438 C 551.359375 303.527344 551.664062 303.535156 551.964844 303.507812 C 553.234375 303.410156 554.300781 304.347656 554.394531 305.589844 C 554.488281 306.839844 553.558594 307.925781 552.3125 308.019531 C 552 308.042969 551.695312 308.046875 551.386719 308.046875 " fill-opacity="1" fill-rule="nonzero"/><path fill="rgb(91.369629%, 76.078796%, 38.038635%)" d="M 518.628906 480.59375 C 517.378906 480.59375 516.363281 479.585938 516.363281 478.335938 C 516.363281 477.8125 516.546875 477.28125 516.882812 476.875 C 520.167969 472.914062 522.667969 468.375 524.3125 463.386719 C 525.433594 459.996094 526.085938 456.476562 526.265625 452.929688 C 526.328125 451.679688 527.355469 450.730469 528.640625 450.785156 C 529.890625 450.847656 530.851562 451.910156 530.785156 453.160156 C 530.585938 457.109375 529.855469 461.027344 528.609375 464.808594 C 526.800781 470.296875 524.054688 475.300781 520.4375 479.679688 C 520.027344 480.234375 519.367188 480.59375 518.628906 480.59375 " fill-opacity="1" fill-rule="nonzero"/><path fill="rgb(91.369629%, 76.078796%, 38.038635%)" d="M 358.324219 748.785156 C 357.074219 748.785156 356.0625 747.773438 356.0625 746.523438 C 356.0625 745.273438 357.074219 744.246094 358.324219 744.246094 C 359.574219 744.246094 360.589844 745.253906 360.589844 746.503906 L 360.589844 746.523438 C 360.589844 747.773438 359.574219 748.785156 358.324219 748.785156 " fill-opacity="1" fill-rule="nonzero"/><path fill="rgb(91.369629%, 76.078796%, 38.038635%)" d="M 353 712.238281 C 362.710938 714.203125 373.140625 713.359375 383.011719 712.316406 C 388.425781 711.746094 393.230469 711.089844 397.226562 708.777344 C 401.195312 706.492188 404.085938 702.753906 407.140625 698.800781 C 407.8125 697.925781 408.484375 697.058594 409.167969 696.207031 C 411.660156 693.085938 414.390625 690.105469 417.039062 687.214844 C 422.550781 681.199219 427.757812 675.515625 431.148438 668.566406 C 435.929688 658.78125 435.363281 644.855469 426.117188 639.433594 C 426.117188 639.425781 426.117188 639.425781 426.117188 639.425781 C 420.964844 636.402344 413.859375 636.390625 405.011719 639.398438 C 402.988281 640.074219 400.929688 640.859375 398.945312 641.625 C 393.496094 643.707031 387.859375 645.871094 381.808594 646.335938 C 374.628906 646.894531 367.71875 645.011719 361.03125 643.1875 C 356.460938 641.945312 351.734375 640.660156 347.082031 640.222656 C 338.519531 639.410156 330.324219 641.636719 324.566406 646.34375 C 318.261719 651.476562 315.117188 659.742188 316.753906 666.914062 C 318.160156 673.140625 322.820312 678.363281 326.929688 682.972656 C 334.929688 691.96875 342.925781 700.9375 350.925781 709.910156 Z M 366.097656 717.953125 C 361.136719 717.953125 356.171875 717.566406 351.328125 716.519531 C 350.855469 716.414062 350.4375 716.164062 350.117188 715.8125 L 347.542969 712.921875 C 339.546875 703.953125 331.546875 694.972656 323.542969 685.984375 C 319.292969 681.214844 314 675.28125 312.332031 667.917969 C 310.332031 659.109375 314.09375 649.023438 321.703125 642.835938 C 328.375 637.382812 337.777344 634.78125 347.511719 635.71875 C 352.546875 636.183594 357.464844 637.53125 362.222656 638.820312 C 368.828125 640.625 375.066406 642.320312 381.460938 641.820312 C 386.855469 641.40625 391.9375 639.457031 397.324219 637.394531 C 399.355469 636.617188 401.457031 635.8125 403.558594 635.105469 C 413.714844 631.664062 422.074219 631.804688 428.414062 635.523438 C 439.890625 642.261719 440.882812 658.957031 435.214844 670.550781 C 431.539062 678.089844 425.867188 684.285156 420.375 690.277344 C 417.78125 693.105469 415.105469 696.027344 412.707031 699.035156 C 412.039062 699.867188 411.378906 700.714844 410.722656 701.570312 C 407.535156 705.695312 404.238281 709.964844 399.492188 712.699219 C 394.726562 715.453125 389.421875 716.195312 383.484375 716.820312 C 377.816406 717.421875 371.957031 717.953125 366.097656 717.953125 " fill-opacity="1" fill-rule="nonzero"/><path fill="rgb(91.369629%, 76.078796%, 38.038635%)" d="M 327.660156 668.84375 C 327.949219 666.867188 328.183594 664.425781 330.203125 663.417969 C 332.070312 662.480469 334.398438 663.042969 336.089844 664.066406 C 339.898438 666.382812 342.316406 671.269531 344.429688 675.019531 C 349.027344 683.183594 352.265625 691.960938 354.285156 701.097656 C 354.929688 704.003906 359.050781 702.695312 358.65625 699.894531 C 358.484375 698.71875 358.320312 697.539062 358.148438 696.363281 C 357.734375 693.488281 353.371094 694.707031 353.78125 697.566406 C 353.949219 698.746094 354.117188 699.917969 354.285156 701.097656 C 355.742188 700.699219 357.199219 700.296875 358.65625 699.894531 C 355.933594 687.585938 350.984375 674.570312 343.097656 664.59375 C 340.207031 660.9375 336.261719 658.027344 331.386719 658.507812 C 326.226562 659.027344 323.988281 662.914062 323.292969 667.640625 C 322.871094 670.492188 327.234375 671.71875 327.660156 668.84375 " fill-opacity="1" fill-rule="nonzero"/><path fill="rgb(91.369629%, 76.078796%, 38.038635%)" d="M 425.121094 656.90625 C 422.097656 653.734375 417.574219 653.125 413.570312 654.753906 C 409.339844 656.46875 406.589844 660.449219 404.433594 664.28125 C 398.460938 674.878906 394.292969 686.472656 391.796875 698.363281 C 391.203125 701.203125 395.566406 702.417969 396.160156 699.566406 C 397.492188 693.210938 410.457031 648.070312 421.921875 660.105469 C 423.9375 662.222656 427.132812 659.015625 425.121094 656.90625 " fill-opacity="1" fill-rule="nonzero"/><path fill="rgb(91.369629%, 76.078796%, 38.038635%)" d="M 357.121094 662 C 369.71875 665.257812 382.792969 665.027344 395.257812 661.285156 C 398.042969 660.449219 396.855469 656.074219 394.050781 656.917969 C 382.339844 660.4375 370.164062 660.695312 358.324219 657.628906 C 355.5 656.898438 354.296875 661.265625 357.121094 662 " fill-opacity="1" fill-rule="nonzero"/></svg>