<svg xmlns="http://www.w3.org/2000/svg" xmlns:xlink="http://www.w3.org/1999/xlink" width="1000" zoomAndPan="magnify" viewBox="0 0 750 749.999995" height="1000" preserveAspectRatio="xMidYMid meet" version="1.0"><defs><clipPath id="id1"><path d="M 0 48 L 750 48 L 750 701.972656 L 0 701.972656 Z M 0 48 " clip-rule="nonzero"/></clipPath></defs><g clip-path="url(#id1)"><path fill="rgb(91.369629%, 76.078796%, 38.038635%)" d="M 318.070312 49.433594 C 321.605469 48.632812 325.222656 48.144531 328.851562 48.210938 C 334.871094 48.152344 340.734375 49.6875 346.601562 50.855469 C 350.636719 51.691406 354.722656 52.3125 358.832031 52.699219 C 367.089844 53.453125 375.378906 54.160156 383.507812 55.898438 C 395.210938 58.289062 406.402344 62.652344 417.167969 67.757812 C 432.191406 74.894531 446.628906 83.242188 460.566406 92.316406 C 466.71875 96.417969 472.75 100.796875 478.027344 106.003906 C 479.6875 107.609375 482.1875 109.011719 484.480469 107.863281 C 486.550781 107.316406 487.46875 105.132812 487.800781 103.214844 C 487.738281 100.5625 488.121094 97.9375 488.398438 95.308594 C 489.113281 91.148438 492.527344 87.757812 496.59375 86.78125 C 499.355469 85.820312 502.277344 86.078125 505.140625 86.0625 C 513.578125 87.050781 521.390625 90.613281 529.015625 94.15625 C 536.964844 97.902344 544.777344 101.925781 552.757812 105.609375 C 558.976562 108.515625 565.394531 110.957031 571.828125 113.347656 C 576.164062 115.007812 580.59375 116.554688 584.601562 118.9375 C 586.785156 120.273438 588.949219 122.113281 589.5625 124.710938 C 590.246094 127.847656 589.042969 130.980469 587.484375 133.660156 C 582.503906 141.878906 574.5 147.675781 566.421875 152.589844 C 565.039062 153.464844 563.582031 154.234375 562.367188 155.34375 C 562.417969 155.453125 562.523438 155.675781 562.574219 155.78125 C 567.25 156.164062 571.972656 156.023438 576.632812 156.648438 C 591.996094 158.203125 607.105469 162.425781 620.949219 169.300781 C 627.941406 172.726562 634.707031 176.65625 640.984375 181.277344 C 644.832031 184.160156 648.578125 187.324219 651.359375 191.285156 C 653.921875 194.925781 655.359375 199.519531 654.539062 203.96875 C 654.242188 206.8125 653.007812 209.503906 652.996094 212.378906 C 652.996094 214.261719 654.980469 214.984375 656.519531 215.3125 C 660.203125 216.070312 663.976562 216.234375 667.703125 216.660156 C 677.816406 217.738281 687.816406 219.722656 697.695312 222.117188 C 705.039062 223.929688 712.332031 226.027344 719.382812 228.792969 C 727.820312 232.035156 735.871094 236.308594 744.621094 238.703125 C 746.421875 239.4375 748.75 239.480469 750 241.152344 C 746.867188 242.667969 743.257812 242.070312 739.9375 241.675781 C 732.855469 240.488281 726.144531 237.820312 719.351562 235.585938 C 710.234375 232.492188 700.9375 229.808594 691.394531 228.425781 C 682.316406 227.09375 673.046875 226.636719 663.917969 227.757812 C 657.003906 228.609375 650.226562 230.777344 644.257812 234.398438 C 636.738281 238.886719 630.34375 244.953125 624.105469 251.03125 C 614.636719 260.347656 605.542969 270.039062 595.828125 279.101562 C 586.21875 288.128906 575.9375 296.75 563.945312 302.441406 C 555.875 306.363281 546.933594 308.796875 537.914062 308.507812 C 528.320312 308.472656 519.074219 305.414062 509.546875 304.792969 C 500.4375 304.128906 491.546875 306.921875 483.261719 310.433594 C 480.675781 311.335938 478.199219 312.871094 475.390625 312.878906 C 476.09375 310.445312 478.09375 308.738281 479.648438 306.839844 C 484.949219 300.945312 490.4375 295.222656 495.613281 289.21875 C 500.882812 283.078125 505.699219 276.40625 508.851562 268.90625 C 511.570312 262.578125 512.929688 255.765625 513.785156 248.953125 C 515.167969 238.519531 515.203125 227.9375 516.996094 217.554688 C 517.988281 211.886719 519.996094 206.027344 524.457031 202.144531 C 529.625 197.628906 536.53125 195.953125 543.136719 194.855469 C 553.949219 193.15625 564.941406 193.128906 575.851562 193.472656 C 584.257812 193.90625 592.703125 194.589844 600.910156 196.539062 C 604.320312 197.429688 607.929688 198.425781 610.554688 200.90625 C 612.253906 202.472656 612.832031 204.976562 612.234375 207.179688 C 611.3125 210.710938 609.007812 213.660156 606.734375 216.433594 C 602.410156 221.441406 597.511719 225.914062 592.578125 230.304688 C 580.3125 241.015625 567.507812 251.089844 554.910156 261.40625 C 547.027344 267.992188 538.878906 274.375 532.078125 282.121094 C 530.359375 284.296875 528.382812 286.640625 528.230469 289.539062 C 528.140625 291.410156 529.851562 292.605469 531.402344 293.226562 C 537.148438 295.574219 543.628906 295.484375 549.605469 294.128906 C 557.109375 292.445312 564.058594 288.964844 570.664062 285.121094 C 582.996094 277.753906 594.265625 268.667969 604.382812 258.484375 C 613.851562 248.925781 622.457031 238.511719 630.050781 227.40625 C 633.699219 221.988281 637.210938 216.433594 639.847656 210.441406 C 641.5625 206.503906 642.910156 202.339844 643.136719 198.027344 C 643.277344 193.816406 642 189.457031 639.171875 186.273438 C 637.273438 184.117188 634.867188 182.480469 632.390625 181.0625 C 626.019531 177.578125 619.152344 175.144531 612.292969 172.828125 C 602.5625 169.652344 592.675781 166.90625 582.640625 164.875 C 574.242188 163.199219 565.652344 161.886719 557.066406 162.566406 C 548.925781 163.15625 541.164062 166.050781 533.90625 169.636719 C 520.746094 176.238281 508.46875 184.410156 495.75 191.792969 C 493.550781 192.871094 491.457031 194.453125 488.9375 194.617188 C 489.386719 192.367188 491.140625 190.742188 492.457031 188.96875 C 495.253906 185.488281 498.285156 182.171875 500.644531 178.363281 C 501.835938 176.3125 502.988281 174.054688 502.898438 171.617188 C 502.765625 169.347656 501.125 167.421875 499.113281 166.507812 C 497.085938 165.460938 494.769531 165.4375 492.589844 164.984375 C 490.359375 164.488281 488.167969 165.476562 485.933594 165.410156 C 477.265625 166.28125 468.707031 167.992188 460.066406 169.027344 C 457.777344 169.488281 455.441406 169.21875 453.160156 169.691406 C 449.164062 169.792969 444.503906 169.574219 441.613281 166.410156 C 438.359375 162.785156 437.105469 157.867188 436.128906 153.214844 C 435.804688 149.910156 435.105469 146.585938 435.523438 143.253906 C 435.878906 140.886719 436.039062 138.46875 436.867188 136.199219 C 438.113281 132.675781 439.828125 129.234375 442.40625 126.492188 C 442.988281 125.816406 443.816406 125.449219 444.65625 125.191406 C 445.328125 130.464844 443.648438 135.621094 443.15625 140.832031 C 442.980469 143.402344 443.683594 145.925781 444.449219 148.351562 C 445.46875 151.484375 448.210938 154.089844 451.546875 154.5 C 455.210938 154.964844 458.832031 153.835938 462.316406 152.820312 C 467.222656 151.3125 472.046875 149.503906 477.0625 148.347656 C 482.144531 147.078125 487.375 146.289062 492.285156 144.398438 C 495.164062 143.308594 497.882812 141.53125 499.601562 138.925781 C 502.015625 135.359375 502.828125 131.058594 504.066406 127.007812 C 504.402344 126.09375 504.8125 124.875 505.9375 124.722656 C 507.03125 124.960938 507.902344 125.746094 508.714844 126.484375 C 511.566406 129.230469 514.101562 132.28125 516.972656 135.011719 C 521.277344 139.085938 525.90625 143.039062 531.453125 145.324219 C 538.347656 148.171875 546.425781 147.71875 553.070312 144.386719 C 557.824219 142.015625 562.195312 138.597656 565.109375 134.109375 C 566.777344 131.507812 567.867188 128.214844 566.765625 125.175781 C 565.496094 121.703125 562.523438 119.253906 559.660156 117.097656 C 553.910156 113.03125 547.667969 109.730469 541.382812 106.578125 C 533.488281 102.582031 525.414062 98.953125 517.257812 95.539062 C 513.917969 94.3125 510.632812 92.925781 507.222656 91.910156 C 505.449219 91.625 503.75 90.8125 501.929688 90.992188 C 500.792969 91.035156 499.539062 90.78125 498.582031 91.558594 C 496.679688 92.683594 496.125 94.96875 495.640625 96.964844 C 495.832031 99.484375 495.335938 102.042969 495.949219 104.523438 C 496.542969 108.308594 497.464844 112.058594 498.914062 115.617188 C 498.75 115.804688 498.417969 116.1875 498.253906 116.378906 C 494.707031 114.617188 490.820312 112.835938 486.765625 113.324219 C 483.109375 114 479.554688 115.21875 476.242188 116.898438 C 475.070312 117.460938 473.851562 116.601562 473.144531 115.707031 C 470.445312 112.113281 468.292969 108.117188 465.375 104.679688 C 458.382812 96.320312 449.113281 90.164062 439.320312 85.539062 C 434.808594 83.195312 430.128906 81.191406 425.34375 79.496094 C 418.933594 77.285156 412.402344 75.210938 405.625 74.53125 C 398.027344 73.597656 390.421875 75.300781 383.269531 77.765625 C 375.660156 80.382812 367.710938 82.242188 359.625 82.277344 C 352.996094 82.4375 346.273438 81.445312 340.152344 78.824219 C 331.507812 75.167969 323.902344 69.246094 314.824219 66.589844 C 305.816406 64.078125 296.324219 66.046875 287.644531 68.898438 C 279.636719 71.460938 272.03125 75.101562 264.632812 79.054688 C 255.339844 84.3125 246.265625 90.265625 238.863281 98.035156 C 233.59375 103.117188 229.539062 109.351562 226.347656 115.90625 C 224.367188 119.703125 222.804688 123.699219 220.738281 127.453125 C 220.304688 128.3125 219.621094 128.996094 218.886719 129.605469 C 217.734375 128.160156 217.488281 126.285156 217.140625 124.53125 C 216.496094 120.980469 215.738281 117.445312 214.570312 114.027344 C 213.441406 110.742188 211.570312 107.582031 208.652344 105.589844 C 204.441406 102.660156 199.308594 101.480469 194.296875 100.824219 C 188.945312 100.171875 183.542969 100.003906 178.15625 99.960938 C 173.90625 100.367188 169.632812 100.199219 165.375 100.367188 C 144.144531 101.234375 122.957031 102.921875 101.75 104.085938 C 98.855469 104.464844 95.921875 104.164062 93.027344 104.566406 C 89.433594 104.8125 85.820312 104.601562 82.234375 105.019531 C 67.375 105.132812 52.476562 105.523438 37.640625 104.445312 C 29.5625 104.023438 21.527344 102.894531 13.621094 101.191406 C 11.734375 100.839844 9.859375 100.261719 7.925781 100.300781 C 7.238281 100.285156 6.539062 100.542969 6.085938 101.070312 C 5.433594 104.261719 7.695312 106.957031 9.300781 109.457031 C 16.023438 118.625 26.671875 124.105469 37.480469 126.917969 C 50.238281 130.207031 63.523438 130.46875 76.621094 130.179688 C 99.066406 129.3125 121.363281 126.386719 143.75 124.664062 C 153.066406 123.941406 162.40625 123.316406 171.765625 123.4375 C 180.0625 123.527344 188.5625 124.285156 196.289062 127.523438 C 200.390625 129.226562 204.101562 131.84375 206.980469 135.238281 C 208.363281 136.6875 209.589844 138.667969 211.738281 138.992188 C 213.589844 139.054688 214.859375 137.476562 216.40625 136.722656 C 217.117188 136.332031 218.121094 136.507812 218.511719 137.269531 C 219.480469 138.945312 219.476562 140.972656 219.523438 142.855469 C 219.550781 151.371094 217.382812 159.703125 214.667969 167.714844 C 212.128906 175.09375 208.5625 182.089844 204.464844 188.722656 C 196.894531 200.964844 188.558594 212.707031 180.191406 224.410156 C 175.476562 230.832031 170.753906 237.285156 165.289062 243.09375 C 163.277344 245.132812 161.136719 247.210938 158.429688 248.273438 C 156.425781 249.046875 154.164062 248.511719 152.441406 247.328125 C 149.628906 245.398438 147.199219 242.96875 144.96875 240.402344 C 138.964844 234.105469 133.222656 227.546875 127.925781 220.644531 C 123.625 214.90625 119.4375 208.921875 116.984375 202.128906 C 115.667969 198.21875 115.039062 193.574219 117.265625 189.871094 C 119.375 186.488281 123.46875 185.148438 127.226562 184.679688 C 132.828125 184.167969 138.464844 184.679688 144.011719 185.480469 C 153.261719 186.855469 162.378906 188.953125 171.46875 191.117188 C 176.140625 192.179688 180.78125 193.402344 185.519531 194.152344 C 188.191406 194.433594 191.246094 194.75 193.484375 192.921875 C 196.5625 190.480469 198.871094 186.804688 199.132812 182.828125 C 199.375 180.136719 197.933594 177.566406 195.910156 175.882812 C 193.53125 173.894531 190.671875 172.585938 187.792969 171.484375 C 180.328125 168.457031 172.417969 166.78125 164.550781 165.167969 C 155.6875 163.503906 146.757812 162.179688 137.769531 161.484375 C 130.308594 160.921875 122.75 160.703125 115.339844 161.894531 C 110.339844 162.734375 105.011719 164.226562 101.554688 168.179688 C 98.386719 171.882812 97.515625 176.910156 97.269531 181.625 C 96.945312 193.765625 99.179688 205.914062 103.300781 217.308594 C 104.914062 221.136719 106.398438 225.023438 108.230469 228.761719 C 113.851562 239.589844 120.894531 249.671875 128.84375 258.921875 C 132.8125 263.339844 136.871094 267.859375 142.039062 270.902344 C 144.359375 272.242188 147.160156 273.164062 149.828125 272.367188 C 150.863281 272.113281 151.828125 271.472656 152.914062 271.472656 C 153.984375 272.570312 154.398438 274.101562 155.089844 275.429688 C 158.109375 282.023438 162.253906 287.996094 165.789062 294.308594 C 170.316406 302.335938 174.347656 310.773438 176.363281 319.8125 C 178.140625 327.460938 178.066406 335.398438 177.421875 343.179688 C 176.328125 351.402344 174.675781 359.566406 172.140625 367.46875 C 168.933594 377.878906 165 388.089844 160.292969 397.921875 C 156.8125 405.515625 152.507812 412.703125 148.304688 419.90625 C 142.820312 428.203125 137.039062 436.308594 130.945312 444.171875 C 127.191406 449.085938 123.398438 453.964844 119.761719 458.960938 C 116.976562 462.941406 114.109375 466.9375 112.214844 471.4375 C 111.1875 474.039062 110.21875 477.058594 111.492188 479.761719 C 112.75 482.242188 115.589844 483.261719 118.144531 483.816406 C 123.820312 484.960938 129.65625 484.648438 135.40625 485.101562 C 141.046875 485.257812 146.550781 486.589844 152.070312 487.628906 C 157.585938 488.734375 163.335938 488.898438 168.859375 487.753906 C 176.199219 486.285156 183.304688 483.882812 190.613281 482.277344 C 196.75 480.894531 203.027344 479.988281 209.335938 480.046875 C 214.050781 480.125 218.902344 480.636719 223.222656 482.675781 C 226.289062 484.070312 228.839844 486.515625 230.417969 489.5 C 232.367188 493.140625 233.039062 497.289062 233.445312 501.355469 C 233.941406 511.132812 232.546875 521.019531 229.300781 530.257812 C 226.5625 537.109375 223.101562 543.808594 218.101562 549.296875 C 216.5625 550.710938 215.617188 552.664062 213.933594 553.945312 C 211.785156 555.488281 209.96875 557.441406 207.796875 558.964844 C 200.238281 564.644531 191.328125 569.007812 181.78125 569.703125 C 174.109375 570.4375 165.460938 568.957031 159.976562 563.097656 C 157.964844 561.335938 156.882812 558.828125 155.800781 556.453125 C 153.96875 551.925781 153.023438 547.027344 153.140625 542.152344 C 153.121094 537.507812 153.851562 532.679688 156.230469 528.621094 C 158.984375 524.0625 163.617188 521.148438 168.070312 518.460938 C 175.257812 514.222656 182.695312 510.4375 190.035156 506.484375 C 196.539062 503.003906 203.039062 499.460938 209.011719 495.105469 C 211.421875 493.652344 213.917969 491.597656 216.929688 492.027344 C 219.910156 492.484375 221.863281 495.023438 223.324219 497.433594 C 223.378906 495.96875 223.519531 494.503906 223.367188 493.046875 C 222.613281 491.871094 221.09375 491.652344 219.878906 491.214844 C 215.988281 490.238281 211.898438 489.792969 207.910156 490.394531 C 197.007812 491.609375 186.292969 494.144531 175.6875 496.894531 C 168.871094 498.777344 162.019531 500.695312 155.5625 503.621094 C 151.820312 505.300781 148.535156 507.96875 146.050781 511.230469 C 144.25 513.300781 142.921875 515.824219 140.640625 517.441406 C 139.378906 518.433594 137.699219 517.253906 137.03125 516.082031 C 133.714844 510.679688 132.839844 504.085938 129.03125 498.945312 C 127.40625 496.839844 124.824219 495.523438 122.199219 495.292969 C 121.167969 495.148438 120.121094 496.117188 120.851562 497.101562 C 123.089844 500.011719 125.847656 502.519531 128.015625 505.503906 C 129.414062 508.015625 129.164062 511.300781 127.789062 513.785156 C 125.78125 517.617188 123.535156 521.324219 121.648438 525.214844 C 118.332031 532.125 114.6875 538.957031 109.796875 544.890625 C 107.835938 546.539062 106.230469 548.710938 103.769531 549.652344 C 101.921875 548.113281 102.410156 545.515625 102.585938 543.417969 C 103.710938 533.25 106.730469 523.269531 106.40625 512.96875 C 106.476562 508.03125 105.585938 503.132812 104.417969 498.351562 C 103.863281 496.589844 103.542969 494.621094 102.21875 493.242188 C 100.769531 495.472656 100.457031 498.195312 99.925781 500.746094 C 98.066406 511.796875 96.996094 522.972656 96.226562 534.144531 C 95.898438 536.925781 96.144531 539.746094 95.777344 542.527344 C 95.488281 547.777344 95.734375 553.039062 96.167969 558.273438 C 96.765625 563.011719 97.792969 567.859375 100.441406 571.914062 C 103.546875 576.777344 108.648438 579.933594 113.910156 582.023438 C 121.636719 585.050781 129.882812 586.441406 138.070312 587.542969 C 148.054688 588.941406 158.125 589.648438 168.066406 591.339844 C 176.804688 592.726562 185.40625 594.828125 194.042969 596.734375 C 203 598.71875 212.105469 600.527344 221.328125 600.339844 C 227.351562 600.265625 233.3125 599.292969 239.273438 598.515625 C 242.210938 598.195312 245.179688 597.789062 248.136719 598.132812 C 252.757812 598.527344 257.097656 600.386719 261.699219 600.941406 C 268.152344 601.679688 275.15625 601.226562 280.734375 597.558594 C 286.054688 593.941406 289.300781 588.140625 291.925781 582.421875 C 295.460938 574.734375 297.523438 566.40625 301.734375 559.03125 C 303.382812 556.246094 305.558594 553.429688 308.773438 552.429688 C 312.109375 551.410156 315.597656 552.417969 318.828125 553.363281 C 325.707031 555.554688 332.433594 558.394531 339.613281 559.519531 C 354.351562 562.019531 370.128906 559.132812 382.582031 550.714844 C 394.59375 542.683594 403.792969 531.035156 410.65625 518.441406 C 417.746094 505.273438 422.28125 490.960938 426.949219 476.816406 C 429.382812 469.414062 431.828125 461.996094 434.996094 454.867188 C 436.683594 451.066406 438.46875 447.292969 440.765625 443.816406 C 441.492188 442.78125 442.246094 441.546875 443.605469 441.308594 C 443.929688 444.117188 443.183594 446.894531 442.636719 449.628906 C 440.722656 458.289062 438.367188 466.84375 436.128906 475.421875 C 431.496094 492.757812 426.835938 510.128906 420.4375 526.90625 C 417.6875 534.203125 414.675781 541.414062 411.070312 548.335938 C 407.523438 555.945312 402.71875 562.867188 397.773438 569.613281 C 396.199219 571.960938 394.0625 573.824219 392.34375 576.046875 C 389.90625 578.273438 387.777344 580.832031 385.210938 582.914062 C 378.695312 588.667969 371.21875 593.429688 362.992188 596.308594 C 358.035156 597.957031 352.859375 598.894531 347.664062 599.339844 C 344.058594 599.800781 340.410156 599.542969 336.796875 599.882812 C 329.050781 600.179688 320.742188 599.414062 313.695312 603.292969 C 306.679688 606.777344 302.878906 615.234375 304.285156 622.84375 C 305.265625 628.992188 308.609375 634.359375 310.964844 640.027344 C 312.273438 643.175781 313 646.652344 312.433594 650.058594 C 312.214844 652.101562 311.964844 654.570312 313.550781 656.167969 C 315.664062 658.128906 318.621094 658.714844 321.355469 659.269531 C 335.175781 661.707031 349.246094 660.234375 363.179688 660.691406 C 366.929688 660.984375 371 661.234375 374.148438 663.523438 C 377.292969 666 377.988281 670.1875 379.113281 673.796875 C 381.140625 681.375 385.898438 687.753906 390.375 694.050781 C 391.9375 696.511719 394.21875 698.78125 394.503906 701.828125 C 392.324219 701.515625 390.925781 699.625 389.417969 698.222656 C 383.949219 692.375 379.023438 685.980469 372.949219 680.722656 C 370.273438 678.402344 367.492188 676.148438 364.269531 674.636719 C 356.472656 670.558594 347.480469 670.054688 338.859375 669.785156 C 328.53125 669.210938 318.117188 668.828125 307.992188 666.527344 C 301.4375 665.007812 294.890625 662.492188 289.960938 657.773438 C 287.558594 655.535156 285.523438 652.792969 284.628906 649.601562 C 283.164062 644.53125 284.023438 639.109375 282.421875 634.066406 C 281.394531 630.882812 280.011719 627.742188 277.851562 625.160156 C 276.554688 623.640625 275.484375 621.929688 273.992188 620.589844 C 270.515625 617.46875 266.828125 614.523438 262.664062 612.351562 C 260.242188 611.140625 257.675781 609.835938 254.890625 609.992188 C 252.035156 610.027344 249.628906 611.777344 247.359375 613.308594 C 242.664062 616.65625 237.8125 619.921875 232.359375 621.917969 C 227.582031 623.757812 222.441406 624.652344 217.320312 624.421875 C 206.359375 623.9375 195.863281 620.308594 185 619.089844 C 176.84375 618.144531 168.445312 619.015625 160.492188 616.609375 C 154.257812 614.640625 148.851562 610.816406 143.550781 607.105469 C 137.164062 602.578125 131.082031 597.28125 123.539062 594.75 C 115.699219 592.011719 107.148438 593.089844 99.238281 590.675781 C 95.582031 589.597656 92.605469 586.742188 91.03125 583.3125 C 88.890625 579.503906 87.949219 575.183594 87.085938 570.945312 C 86.261719 565.652344 85.914062 560.289062 86.050781 554.933594 C 86.457031 546.972656 87.105469 539.023438 87.835938 531.082031 C 88.632812 522.433594 89 513.75 89.828125 505.101562 C 90.402344 499.160156 91.25 493.203125 93.046875 487.496094 C 94.714844 481.941406 97.503906 476.777344 100.914062 472.105469 C 106.125 465.023438 112.5 458.917969 118.691406 452.707031 C 126.40625 445.074219 133.957031 437.1875 140.21875 428.285156 C 151.292969 412.589844 157.746094 393.976562 160.546875 375.066406 C 162.261719 362.921875 162.457031 350.550781 160.910156 338.378906 C 159.792969 329.890625 157.921875 321.429688 154.570312 313.53125 C 151.644531 306.621094 147.375 300.394531 142.890625 294.421875 C 129.824219 277.375 116.988281 260.039062 106.621094 241.183594 C 105.761719 239.515625 105 237.792969 103.984375 236.207031 C 99.878906 228.660156 96.574219 220.660156 94.308594 212.367188 C 91.199219 200.949219 90.214844 188.984375 91.167969 177.203125 C 91.425781 172.992188 91.726562 168.585938 93.78125 164.8125 C 95.625 161.464844 99.210938 159.597656 102.742188 158.542969 C 109.308594 156.59375 116.1875 156.046875 122.996094 155.644531 C 140.542969 154.808594 158.214844 156.414062 175.300781 160.535156 C 180.777344 161.777344 186.191406 163.292969 191.644531 164.644531 C 195.617188 165.648438 199.617188 166.660156 203.726562 166.90625 C 205.894531 166.988281 208.269531 166.5625 209.859375 164.960938 C 212.058594 162.914062 212.453125 159.574219 211.777344 156.78125 C 211.34375 154.886719 209.535156 153.824219 207.898438 153.070312 C 204.222656 151.507812 200.25 150.84375 196.324219 150.25 C 187.257812 148.996094 178.105469 148.617188 168.976562 148.089844 C 164.429688 147.984375 159.898438 147.601562 155.347656 147.566406 C 148.441406 147.078125 141.5 147.246094 134.59375 146.785156 C 122.992188 146.574219 111.398438 145.851562 99.796875 145.539062 C 86.84375 144.765625 73.863281 143.925781 61.019531 141.972656 C 50.320312 140.34375 39.621094 137.910156 29.773438 133.308594 C 21.304688 129.285156 13.375 123.890625 7.15625 116.824219 C 3.855469 112.6875 -0.0078125 108.109375 0.386719 102.464844 C 0.261719 99.792969 2.558594 97.601562 5.105469 97.277344 C 9.351562 96.644531 13.617188 97.613281 17.8125 98.246094 C 26.933594 99.894531 36.171875 101.050781 45.453125 101.078125 C 56.128906 101.222656 66.789062 100.40625 77.40625 99.386719 C 104.753906 96.519531 131.953125 92.226562 159.382812 90.148438 C 175.863281 88.804688 192.410156 88.988281 208.933594 89.011719 C 217.972656 88.902344 227.214844 89.027344 235.941406 86.328125 C 241.488281 84.652344 246.453125 81.585938 251.324219 78.535156 C 257.90625 74.382812 264.832031 70.828125 271.839844 67.46875 C 280.0625 63.574219 288.394531 59.914062 296.816406 56.476562 C 303.742188 53.6875 310.78125 51.09375 318.070312 49.433594 Z M 318.070312 49.433594 " fill-opacity="1" fill-rule="nonzero"/></g><path fill="rgb(91.369629%, 76.078796%, 38.038635%)" d="M 384.597656 285.78125 C 394.746094 285.050781 404.925781 286.5625 414.714844 289.1875 C 421.238281 290.953125 427.675781 293.15625 433.722656 296.191406 C 436.523438 297.640625 439.390625 299.222656 441.441406 301.683594 C 442.449219 302.863281 443.050781 304.675781 442.144531 306.085938 C 440.773438 308.269531 438.214844 309.246094 435.847656 309.898438 C 430.75 311.230469 425.445312 311.753906 420.496094 313.628906 C 414.234375 315.847656 409.109375 320.222656 404.027344 324.351562 C 398.789062 328.734375 393.402344 333.164062 387.015625 335.769531 C 382.644531 337.53125 377.796875 338.546875 373.101562 337.691406 C 367.210938 336.75 361.984375 333.441406 357.613281 329.511719 C 354.886719 327.179688 352.523438 324.464844 350.210938 321.738281 C 347.410156 318.3125 344.765625 314.722656 342.726562 310.789062 C 341.878906 309.011719 340.972656 306.890625 341.898438 304.964844 C 343.007812 302.597656 345.253906 301.074219 347.304688 299.585938 C 358.328125 292.007812 371.21875 286.921875 384.597656 285.78125 Z M 384.597656 285.78125 " fill-opacity="1" fill-rule="nonzero"/><path fill="rgb(91.369629%, 76.078796%, 38.038635%)" d="M 566.726562 336.339844 C 566.847656 335.632812 567.671875 334.492188 568.308594 335.441406 C 569.4375 337.433594 569.707031 339.777344 570.183594 341.992188 C 571.703125 350.816406 572.363281 359.761719 572.871094 368.691406 C 572.808594 372.691406 573.347656 376.667969 573.191406 380.671875 C 573.335938 384.40625 572.847656 388.125 572.890625 391.863281 C 572.0625 409.988281 569.363281 428.097656 563.996094 445.457031 C 558.734375 462.59375 551.617188 479.148438 543.078125 494.902344 C 535.824219 508.316406 527.554688 521.195312 518.222656 533.261719 C 506.433594 548.375 493.261719 562.417969 478.769531 574.964844 C 477.296875 576.195312 475.917969 577.5625 474.25 578.535156 C 476.078125 576.09375 478.28125 573.960938 480.238281 571.628906 C 490.914062 559.523438 500.816406 546.757812 510.136719 533.589844 C 519.355469 520.507812 528.148438 507.109375 536.085938 493.207031 C 543.964844 479.386719 551.03125 464.933594 555.035156 449.472656 C 559.832031 431.21875 560.226562 412.242188 561.515625 393.53125 C 562.316406 379.78125 563.101562 366.035156 564.253906 352.308594 C 564.855469 346.960938 565.132812 341.507812 566.726562 336.339844 Z M 566.726562 336.339844 " fill-opacity="1" fill-rule="nonzero"/></svg>